<svg width="186" height="59" viewBox="0 0 186 59" fill="none" xmlns="http://www.w3.org/2000/svg">
<g clip-path="url(#clip0_535_9)">
<mask id="path-1-outside-1_535_9" maskUnits="userSpaceOnUse" x="16" y="17" width="152" height="29" fill="black">
<rect fill="white" x="16" y="17" width="152" height="29"/>
<path d="M29.0312 22.5156V23.3945C28.5104 24.4753 28.1133 25.3216 27.8398 25.9336C27.5664 26.5326 27.4297 26.9427 27.4297 27.1641C27.4297 27.5417 27.6445 27.7305 28.0742 27.7305L31.9219 19.293C32.8203 18.707 34.0443 18.4141 35.5938 18.4141C37.1562 18.4141 38.4974 18.8438 39.6172 19.7031C40.8411 20.6667 41.4531 21.9818 41.4531 23.6484C41.4531 25.0417 40.9779 26.4154 40.0273 27.7695C39.0768 29.1107 37.8333 30.276 36.2969 31.2656C35.5807 30.862 34.9362 30.6602 34.3633 30.6602C33.7904 30.6602 33.5039 30.9401 33.5039 31.5C34.1029 31.6172 34.6432 31.7865 35.125 32.0078C35.6198 32.2161 36.1992 32.6263 36.8633 33.2383L42.0586 38.0234C41.681 42.2422 39.5716 44.3516 35.7305 44.3516C34.3112 44.3516 33.0938 43.987 32.0781 43.2578C30.8802 42.4115 29.9427 41.1224 29.2656 39.3906L27.4492 34.8594H27.3516C26.9219 34.8594 26.707 35.0417 26.707 35.4062C26.707 35.6406 26.8893 36.207 27.2539 37.1055C27.6185 38.082 28.1654 39.3841 28.8945 41.0117V42.5156C27.5273 43.7396 25.5417 44.3516 22.9375 44.3516C21.5312 44.3516 20.3268 44.0326 19.3242 43.3945C18.1914 42.7044 17.625 41.7214 17.625 40.4453V20.2891C18.9661 19.0651 21.0039 18.4531 23.7383 18.4531C25.1576 18.4531 26.362 18.7526 27.3516 19.3516C28.4714 20.0677 29.0312 21.1224 29.0312 22.5156ZM54.0508 31.168C54.1549 31.2721 54.3177 31.3242 54.5391 31.3242C54.7604 31.3242 54.9492 31.2786 55.1055 31.1875C54.7669 29.2083 54.5391 28.0365 54.4219 27.6719C54.2786 27.2943 54.0638 27.1055 53.7773 27.1055C53.6471 27.1055 53.4909 27.1445 53.3086 27.2227L54.0508 31.168ZM50.1836 37.0273C50.0534 37.2096 49.9883 37.3789 49.9883 37.5352C49.9883 37.9128 50.3398 38.2318 51.043 38.4922C51.7591 38.7396 52.625 38.8958 53.6406 38.9609C53.8099 40.8359 53.9922 41.9036 54.1875 42.1641C53.9401 42.6458 53.2565 43.1341 52.1367 43.6289C51.0169 44.1107 49.7539 44.3516 48.3477 44.3516C46.4857 44.3516 44.8906 43.9544 43.5625 43.1602C42.2344 42.3529 41.5703 41.3177 41.5703 40.0547C41.5703 39.7161 41.6029 39.4167 41.668 39.1562L45.8281 20.5625C46.8698 19.8984 48.1133 19.3776 49.5586 19C51.0039 18.6224 52.5078 18.4336 54.0703 18.4336C56.3099 18.4336 58.224 18.8112 59.8125 19.5664C61.6224 20.4258 62.7227 21.6693 63.1133 23.2969L67.5664 41.7148C66.2122 43.4727 64.0052 44.3516 60.9453 44.3516C59.4609 44.3516 58.2044 44.0846 57.1758 43.5508C56.1471 43.0169 55.5482 42.2552 55.3789 41.2656L54.9492 38.8828C55.7305 38.8698 56.4857 38.7201 57.2148 38.4336C57.944 38.1471 58.3086 37.8477 58.3086 37.5352C58.3086 37.3268 58.224 37.1576 58.0547 37.0273C57.5599 37.3789 56.9544 37.6458 56.2383 37.8281C55.5221 38.0104 54.8581 38.1016 54.2461 38.1016C52.4883 38.1016 51.1341 37.7435 50.1836 37.0273ZM68.1719 40.3867V20.8164C68.1719 20.1393 68.7122 19.5794 69.793 19.1367C70.8867 18.681 72.1693 18.4531 73.6406 18.4531C74.474 18.4531 75.2552 18.5573 75.9844 18.7656C76.7266 18.9609 77.293 19.2148 77.6836 19.5273C78.2174 20.2044 78.7057 20.8945 79.1484 21.5977C79.5911 22.3008 80.5872 23.9414 82.1367 26.5195C82.2799 26.5195 82.4102 26.474 82.5273 26.3828C82.6445 26.2917 82.7031 26.1549 82.7031 25.9727C82.7031 25.7773 82.5404 25.4062 82.2148 24.8594L80.1055 21.2266V20.1523C80.7695 19.6055 81.5768 19.1823 82.5273 18.8828C83.4779 18.5833 84.4609 18.4336 85.4766 18.4336C87.1302 18.4336 88.4648 18.7331 89.4805 19.332C90.6654 20.0482 91.2578 21.168 91.2578 22.6914V41.1875C91.2578 42.3073 90.724 43.1211 89.6562 43.6289C88.7448 44.0846 87.5273 44.3125 86.0039 44.3125C85.1576 44.3125 84.3307 44.2214 83.5234 44.0391C82.7292 43.8568 82.1042 43.6224 81.6484 43.3359C80.724 42.151 79.806 40.8229 78.8945 39.3516L76.9023 36.0312C76.5247 36.0833 76.3359 36.2852 76.3359 36.6367C76.3359 36.8581 76.5247 37.2812 76.9023 37.9062L79.3438 41.8516V42.8867C77.8333 43.8633 76.1276 44.3516 74.2266 44.3516C72.3385 44.3516 70.8542 44.0065 69.7734 43.3164C68.7057 42.6263 68.1719 41.6497 68.1719 40.3867ZM103.309 36.3633C103.361 36.4023 103.51 36.4219 103.758 36.4219C104.005 36.4219 104.194 36.3372 104.324 36.168C104.454 35.9987 104.52 35.6992 104.52 35.2695V34.8984C104.52 34.4167 104.461 34.0716 104.344 33.8633C104.24 33.6549 104.057 33.5508 103.797 33.5508C103.549 33.5508 103.38 33.5768 103.289 33.6289C103.302 33.694 103.309 33.8047 103.309 33.9609V36.3633ZM103.309 29C103.361 29.0391 103.51 29.0586 103.758 29.0586C104.005 29.0586 104.194 28.9609 104.324 28.7656C104.454 28.5703 104.52 28.2513 104.52 27.8086V27.6914C104.52 27.2227 104.461 26.8906 104.344 26.6953C104.24 26.487 104.057 26.3828 103.797 26.3828C103.549 26.3828 103.38 26.4089 103.289 26.4609C103.302 26.526 103.309 26.6367 103.309 26.793V29ZM92.7031 21.4805C92.7031 21.181 92.9505 20.8424 93.4453 20.4648C94.487 19.6706 96.3229 19.0521 98.9531 18.6094C100.32 18.388 101.824 18.2773 103.465 18.2773C107.371 18.2773 110.327 19.0326 112.332 20.543C114.09 21.8711 114.969 23.6159 114.969 25.7773C114.969 26.5586 114.832 27.3268 114.559 28.082C114.285 28.8242 113.895 29.3841 113.387 29.7617C112.697 29.4102 112.033 29.2344 111.395 29.2344C111.095 29.2344 110.867 29.293 110.711 29.4102C110.555 29.5273 110.477 29.7422 110.477 30.0547C112.391 30.1328 113.882 30.8229 114.949 32.125C115.9 33.3099 116.375 34.7812 116.375 36.5391C116.375 39.2604 115.236 41.2396 112.957 42.4766C110.822 43.6354 107.605 44.2148 103.309 44.2148C100.301 44.2148 98.0938 44.1237 96.6875 43.9414C95.2812 43.7461 94.2656 43.2969 93.6406 42.5938C93.0156 41.8906 92.7031 40.8229 92.7031 39.3906V21.4805ZM129.168 31.168C129.272 31.2721 129.435 31.3242 129.656 31.3242C129.878 31.3242 130.066 31.2786 130.223 31.1875C129.884 29.2083 129.656 28.0365 129.539 27.6719C129.396 27.2943 129.181 27.1055 128.895 27.1055C128.764 27.1055 128.608 27.1445 128.426 27.2227L129.168 31.168ZM125.301 37.0273C125.171 37.2096 125.105 37.3789 125.105 37.5352C125.105 37.9128 125.457 38.2318 126.16 38.4922C126.876 38.7396 127.742 38.8958 128.758 38.9609C128.927 40.8359 129.109 41.9036 129.305 42.1641C129.057 42.6458 128.374 43.1341 127.254 43.6289C126.134 44.1107 124.871 44.3516 123.465 44.3516C121.603 44.3516 120.008 43.9544 118.68 43.1602C117.352 42.3529 116.688 41.3177 116.688 40.0547C116.688 39.7161 116.72 39.4167 116.785 39.1562L120.945 20.5625C121.987 19.8984 123.23 19.3776 124.676 19C126.121 18.6224 127.625 18.4336 129.188 18.4336C131.427 18.4336 133.341 18.8112 134.93 19.5664C136.74 20.4258 137.84 21.6693 138.23 23.2969L142.684 41.7148C141.329 43.4727 139.122 44.3516 136.062 44.3516C134.578 44.3516 133.322 44.0846 132.293 43.5508C131.264 43.0169 130.665 42.2552 130.496 41.2656L130.066 38.8828C130.848 38.8698 131.603 38.7201 132.332 38.4336C133.061 38.1471 133.426 37.8477 133.426 37.5352C133.426 37.3268 133.341 37.1576 133.172 37.0273C132.677 37.3789 132.072 37.6458 131.355 37.8281C130.639 38.0104 129.975 38.1016 129.363 38.1016C127.605 38.1016 126.251 37.7435 125.301 37.0273ZM143.289 40.3867V20.8164C143.289 20.1393 143.829 19.5794 144.91 19.1367C146.004 18.681 147.286 18.4531 148.758 18.4531C149.591 18.4531 150.372 18.5573 151.102 18.7656C151.844 18.9609 152.41 19.2148 152.801 19.5273C153.335 20.2044 153.823 20.8945 154.266 21.5977C154.708 22.3008 155.704 23.9414 157.254 26.5195C157.397 26.5195 157.527 26.474 157.645 26.3828C157.762 26.2917 157.82 26.1549 157.82 25.9727C157.82 25.7773 157.658 25.4062 157.332 24.8594L155.223 21.2266V20.1523C155.887 19.6055 156.694 19.1823 157.645 18.8828C158.595 18.5833 159.578 18.4336 160.594 18.4336C162.247 18.4336 163.582 18.7331 164.598 19.332C165.783 20.0482 166.375 21.168 166.375 22.6914V41.1875C166.375 42.3073 165.841 43.1211 164.773 43.6289C163.862 44.0846 162.645 44.3125 161.121 44.3125C160.275 44.3125 159.448 44.2214 158.641 44.0391C157.846 43.8568 157.221 43.6224 156.766 43.3359C155.841 42.151 154.923 40.8229 154.012 39.3516L152.02 36.0312C151.642 36.0833 151.453 36.2852 151.453 36.6367C151.453 36.8581 151.642 37.2812 152.02 37.9062L154.461 41.8516V42.8867C152.951 43.8633 151.245 44.3516 149.344 44.3516C147.456 44.3516 145.971 44.0065 144.891 43.3164C143.823 42.6263 143.289 41.6497 143.289 40.3867Z"/>
</mask>
<path d="M29.0312 22.5156V23.3945C28.5104 24.4753 28.1133 25.3216 27.8398 25.9336C27.5664 26.5326 27.4297 26.9427 27.4297 27.1641C27.4297 27.5417 27.6445 27.7305 28.0742 27.7305L31.9219 19.293C32.8203 18.707 34.0443 18.4141 35.5938 18.4141C37.1562 18.4141 38.4974 18.8438 39.6172 19.7031C40.8411 20.6667 41.4531 21.9818 41.4531 23.6484C41.4531 25.0417 40.9779 26.4154 40.0273 27.7695C39.0768 29.1107 37.8333 30.276 36.2969 31.2656C35.5807 30.862 34.9362 30.6602 34.3633 30.6602C33.7904 30.6602 33.5039 30.9401 33.5039 31.5C34.1029 31.6172 34.6432 31.7865 35.125 32.0078C35.6198 32.2161 36.1992 32.6263 36.8633 33.2383L42.0586 38.0234C41.681 42.2422 39.5716 44.3516 35.7305 44.3516C34.3112 44.3516 33.0938 43.987 32.0781 43.2578C30.8802 42.4115 29.9427 41.1224 29.2656 39.3906L27.4492 34.8594H27.3516C26.9219 34.8594 26.707 35.0417 26.707 35.4062C26.707 35.6406 26.8893 36.207 27.2539 37.1055C27.6185 38.082 28.1654 39.3841 28.8945 41.0117V42.5156C27.5273 43.7396 25.5417 44.3516 22.9375 44.3516C21.5312 44.3516 20.3268 44.0326 19.3242 43.3945C18.1914 42.7044 17.625 41.7214 17.625 40.4453V20.2891C18.9661 19.0651 21.0039 18.4531 23.7383 18.4531C25.1576 18.4531 26.362 18.7526 27.3516 19.3516C28.4714 20.0677 29.0312 21.1224 29.0312 22.5156ZM54.0508 31.168C54.1549 31.2721 54.3177 31.3242 54.5391 31.3242C54.7604 31.3242 54.9492 31.2786 55.1055 31.1875C54.7669 29.2083 54.5391 28.0365 54.4219 27.6719C54.2786 27.2943 54.0638 27.1055 53.7773 27.1055C53.6471 27.1055 53.4909 27.1445 53.3086 27.2227L54.0508 31.168ZM50.1836 37.0273C50.0534 37.2096 49.9883 37.3789 49.9883 37.5352C49.9883 37.9128 50.3398 38.2318 51.043 38.4922C51.7591 38.7396 52.625 38.8958 53.6406 38.9609C53.8099 40.8359 53.9922 41.9036 54.1875 42.1641C53.9401 42.6458 53.2565 43.1341 52.1367 43.6289C51.0169 44.1107 49.7539 44.3516 48.3477 44.3516C46.4857 44.3516 44.8906 43.9544 43.5625 43.1602C42.2344 42.3529 41.5703 41.3177 41.5703 40.0547C41.5703 39.7161 41.6029 39.4167 41.668 39.1562L45.8281 20.5625C46.8698 19.8984 48.1133 19.3776 49.5586 19C51.0039 18.6224 52.5078 18.4336 54.0703 18.4336C56.3099 18.4336 58.224 18.8112 59.8125 19.5664C61.6224 20.4258 62.7227 21.6693 63.1133 23.2969L67.5664 41.7148C66.2122 43.4727 64.0052 44.3516 60.9453 44.3516C59.4609 44.3516 58.2044 44.0846 57.1758 43.5508C56.1471 43.0169 55.5482 42.2552 55.3789 41.2656L54.9492 38.8828C55.7305 38.8698 56.4857 38.7201 57.2148 38.4336C57.944 38.1471 58.3086 37.8477 58.3086 37.5352C58.3086 37.3268 58.224 37.1576 58.0547 37.0273C57.5599 37.3789 56.9544 37.6458 56.2383 37.8281C55.5221 38.0104 54.8581 38.1016 54.2461 38.1016C52.4883 38.1016 51.1341 37.7435 50.1836 37.0273ZM68.1719 40.3867V20.8164C68.1719 20.1393 68.7122 19.5794 69.793 19.1367C70.8867 18.681 72.1693 18.4531 73.6406 18.4531C74.474 18.4531 75.2552 18.5573 75.9844 18.7656C76.7266 18.9609 77.293 19.2148 77.6836 19.5273C78.2174 20.2044 78.7057 20.8945 79.1484 21.5977C79.5911 22.3008 80.5872 23.9414 82.1367 26.5195C82.2799 26.5195 82.4102 26.474 82.5273 26.3828C82.6445 26.2917 82.7031 26.1549 82.7031 25.9727C82.7031 25.7773 82.5404 25.4062 82.2148 24.8594L80.1055 21.2266V20.1523C80.7695 19.6055 81.5768 19.1823 82.5273 18.8828C83.4779 18.5833 84.4609 18.4336 85.4766 18.4336C87.1302 18.4336 88.4648 18.7331 89.4805 19.332C90.6654 20.0482 91.2578 21.168 91.2578 22.6914V41.1875C91.2578 42.3073 90.724 43.1211 89.6562 43.6289C88.7448 44.0846 87.5273 44.3125 86.0039 44.3125C85.1576 44.3125 84.3307 44.2214 83.5234 44.0391C82.7292 43.8568 82.1042 43.6224 81.6484 43.3359C80.724 42.151 79.806 40.8229 78.8945 39.3516L76.9023 36.0312C76.5247 36.0833 76.3359 36.2852 76.3359 36.6367C76.3359 36.8581 76.5247 37.2812 76.9023 37.9062L79.3438 41.8516V42.8867C77.8333 43.8633 76.1276 44.3516 74.2266 44.3516C72.3385 44.3516 70.8542 44.0065 69.7734 43.3164C68.7057 42.6263 68.1719 41.6497 68.1719 40.3867ZM103.309 36.3633C103.361 36.4023 103.51 36.4219 103.758 36.4219C104.005 36.4219 104.194 36.3372 104.324 36.168C104.454 35.9987 104.52 35.6992 104.52 35.2695V34.8984C104.52 34.4167 104.461 34.0716 104.344 33.8633C104.24 33.6549 104.057 33.5508 103.797 33.5508C103.549 33.5508 103.38 33.5768 103.289 33.6289C103.302 33.694 103.309 33.8047 103.309 33.9609V36.3633ZM103.309 29C103.361 29.0391 103.51 29.0586 103.758 29.0586C104.005 29.0586 104.194 28.9609 104.324 28.7656C104.454 28.5703 104.52 28.2513 104.52 27.8086V27.6914C104.52 27.2227 104.461 26.8906 104.344 26.6953C104.24 26.487 104.057 26.3828 103.797 26.3828C103.549 26.3828 103.38 26.4089 103.289 26.4609C103.302 26.526 103.309 26.6367 103.309 26.793V29ZM92.7031 21.4805C92.7031 21.181 92.9505 20.8424 93.4453 20.4648C94.487 19.6706 96.3229 19.0521 98.9531 18.6094C100.32 18.388 101.824 18.2773 103.465 18.2773C107.371 18.2773 110.327 19.0326 112.332 20.543C114.09 21.8711 114.969 23.6159 114.969 25.7773C114.969 26.5586 114.832 27.3268 114.559 28.082C114.285 28.8242 113.895 29.3841 113.387 29.7617C112.697 29.4102 112.033 29.2344 111.395 29.2344C111.095 29.2344 110.867 29.293 110.711 29.4102C110.555 29.5273 110.477 29.7422 110.477 30.0547C112.391 30.1328 113.882 30.8229 114.949 32.125C115.9 33.3099 116.375 34.7812 116.375 36.5391C116.375 39.2604 115.236 41.2396 112.957 42.4766C110.822 43.6354 107.605 44.2148 103.309 44.2148C100.301 44.2148 98.0938 44.1237 96.6875 43.9414C95.2812 43.7461 94.2656 43.2969 93.6406 42.5938C93.0156 41.8906 92.7031 40.8229 92.7031 39.3906V21.4805ZM129.168 31.168C129.272 31.2721 129.435 31.3242 129.656 31.3242C129.878 31.3242 130.066 31.2786 130.223 31.1875C129.884 29.2083 129.656 28.0365 129.539 27.6719C129.396 27.2943 129.181 27.1055 128.895 27.1055C128.764 27.1055 128.608 27.1445 128.426 27.2227L129.168 31.168ZM125.301 37.0273C125.171 37.2096 125.105 37.3789 125.105 37.5352C125.105 37.9128 125.457 38.2318 126.16 38.4922C126.876 38.7396 127.742 38.8958 128.758 38.9609C128.927 40.8359 129.109 41.9036 129.305 42.1641C129.057 42.6458 128.374 43.1341 127.254 43.6289C126.134 44.1107 124.871 44.3516 123.465 44.3516C121.603 44.3516 120.008 43.9544 118.68 43.1602C117.352 42.3529 116.688 41.3177 116.688 40.0547C116.688 39.7161 116.72 39.4167 116.785 39.1562L120.945 20.5625C121.987 19.8984 123.23 19.3776 124.676 19C126.121 18.6224 127.625 18.4336 129.188 18.4336C131.427 18.4336 133.341 18.8112 134.93 19.5664C136.74 20.4258 137.84 21.6693 138.23 23.2969L142.684 41.7148C141.329 43.4727 139.122 44.3516 136.062 44.3516C134.578 44.3516 133.322 44.0846 132.293 43.5508C131.264 43.0169 130.665 42.2552 130.496 41.2656L130.066 38.8828C130.848 38.8698 131.603 38.7201 132.332 38.4336C133.061 38.1471 133.426 37.8477 133.426 37.5352C133.426 37.3268 133.341 37.1576 133.172 37.0273C132.677 37.3789 132.072 37.6458 131.355 37.8281C130.639 38.0104 129.975 38.1016 129.363 38.1016C127.605 38.1016 126.251 37.7435 125.301 37.0273ZM143.289 40.3867V20.8164C143.289 20.1393 143.829 19.5794 144.91 19.1367C146.004 18.681 147.286 18.4531 148.758 18.4531C149.591 18.4531 150.372 18.5573 151.102 18.7656C151.844 18.9609 152.41 19.2148 152.801 19.5273C153.335 20.2044 153.823 20.8945 154.266 21.5977C154.708 22.3008 155.704 23.9414 157.254 26.5195C157.397 26.5195 157.527 26.474 157.645 26.3828C157.762 26.2917 157.82 26.1549 157.82 25.9727C157.82 25.7773 157.658 25.4062 157.332 24.8594L155.223 21.2266V20.1523C155.887 19.6055 156.694 19.1823 157.645 18.8828C158.595 18.5833 159.578 18.4336 160.594 18.4336C162.247 18.4336 163.582 18.7331 164.598 19.332C165.783 20.0482 166.375 21.168 166.375 22.6914V41.1875C166.375 42.3073 165.841 43.1211 164.773 43.6289C163.862 44.0846 162.645 44.3125 161.121 44.3125C160.275 44.3125 159.448 44.2214 158.641 44.0391C157.846 43.8568 157.221 43.6224 156.766 43.3359C155.841 42.151 154.923 40.8229 154.012 39.3516L152.02 36.0312C151.642 36.0833 151.453 36.2852 151.453 36.6367C151.453 36.8581 151.642 37.2812 152.02 37.9062L154.461 41.8516V42.8867C152.951 43.8633 151.245 44.3516 149.344 44.3516C147.456 44.3516 145.971 44.0065 144.891 43.3164C143.823 42.6263 143.289 41.6497 143.289 40.3867Z" fill="url(#paint0_linear_535_9)"/>
<path d="M29.0312 23.3945L29.9321 23.8287L30.0312 23.6229V23.3945H29.0312ZM27.8398 25.9336L28.7496 26.3489L28.7529 26.3415L27.8398 25.9336ZM28.0742 27.7305V28.7305H28.7173L28.9841 28.1454L28.0742 27.7305ZM31.9219 19.293L31.3756 18.4554L31.1325 18.6139L31.012 18.8781L31.9219 19.293ZM39.6172 19.7031L40.2358 18.9173L40.226 18.9098L39.6172 19.7031ZM40.0273 27.7695L40.8432 28.3478L40.8458 28.344L40.0273 27.7695ZM36.2969 31.2656L35.8059 32.1368L36.3313 32.4329L36.8384 32.1063L36.2969 31.2656ZM33.5039 31.5H32.5039V32.3233L33.3119 32.4814L33.5039 31.5ZM35.125 32.0078L34.7075 32.9165L34.7221 32.9232L34.7369 32.9294L35.125 32.0078ZM36.8633 33.2383L36.1856 33.9736L36.1858 33.9738L36.8633 33.2383ZM42.0586 38.0234L43.0546 38.1126L43.0985 37.6218L42.7361 37.2879L42.0586 38.0234ZM32.0781 43.2578L32.6613 42.4455L32.6552 42.4411L32.0781 43.2578ZM29.2656 39.3906L30.197 39.0265L30.1938 39.0185L29.2656 39.3906ZM27.4492 34.8594L28.3774 34.4873L28.1257 33.8594H27.4492V34.8594ZM27.2539 37.1055L28.1907 36.7557L28.1858 36.7425L28.1805 36.7295L27.2539 37.1055ZM28.8945 41.0117H29.8945V40.798L29.8071 40.6029L28.8945 41.0117ZM28.8945 42.5156L29.5615 43.2607L29.8945 42.9626V42.5156H28.8945ZM19.3242 43.3945L19.8611 42.5509L19.8528 42.5456L19.8445 42.5405L19.3242 43.3945ZM17.625 20.2891L16.9509 19.5504L16.625 19.8478V20.2891H17.625ZM27.3516 19.3516L27.8903 18.5091L27.8799 18.5025L27.8694 18.4961L27.3516 19.3516ZM28.0312 22.5156V23.3945H30.0312V22.5156H28.0312ZM28.1304 22.9604C27.6081 24.0442 27.2061 24.9006 26.9268 25.5257L28.7529 26.3415C29.0205 25.7426 29.4127 24.9063 29.9321 23.8287L28.1304 22.9604ZM26.9302 25.5183C26.7854 25.8353 26.6673 26.1229 26.5835 26.3742C26.5071 26.6034 26.4297 26.8866 26.4297 27.1641H28.4297C28.4297 27.2201 28.4206 27.1876 28.4809 27.0067C28.5339 26.8478 28.6208 26.6309 28.7495 26.3489L26.9302 25.5183ZM26.4297 27.1641C26.4297 27.543 26.5434 27.9997 26.9307 28.34C27.2933 28.6587 27.7347 28.7305 28.0742 28.7305V26.7305C27.984 26.7305 28.1032 26.7079 28.2509 26.8377C28.3271 26.9046 28.3775 26.9847 28.405 27.0572C28.4177 27.0908 28.4238 27.1182 28.4268 27.1364C28.4283 27.1455 28.429 27.1524 28.4293 27.157C28.4297 27.1616 28.4297 27.164 28.4297 27.1641H26.4297ZM28.9841 28.1454L32.8317 19.7079L31.012 18.8781L27.1644 27.3156L28.9841 28.1454ZM32.4681 20.1306C33.1469 19.6879 34.1563 19.4141 35.5938 19.4141V17.4141C33.9322 17.4141 32.4937 17.7262 31.3756 18.4554L32.4681 20.1306ZM35.5938 19.4141C36.961 19.4141 38.082 19.7855 39.0084 20.4964L40.226 18.9098C38.9128 17.902 37.3515 17.4141 35.5938 17.4141V19.4141ZM38.9986 20.4889C39.963 21.248 40.4531 22.2636 40.4531 23.6484H42.4531C42.4531 21.7 41.7193 20.0853 40.2357 18.9174L38.9986 20.4889ZM40.4531 23.6484C40.4531 24.7998 40.0639 25.9768 39.2089 27.195L40.8458 28.344C41.8918 26.8539 42.4531 25.2835 42.4531 23.6484H40.4531ZM39.2115 27.1913C38.3426 28.4172 37.1965 29.4968 35.7554 30.4249L36.8384 32.1063C38.4702 31.0553 39.811 29.8042 40.8432 28.3478L39.2115 27.1913ZM36.7879 30.3945C35.9831 29.9409 35.167 29.6602 34.3633 29.6602V31.6602C34.7054 31.6602 35.1783 31.7831 35.8059 32.1368L36.7879 30.3945ZM34.3633 29.6602C33.9284 29.6602 33.4174 29.7663 33.0198 30.1549C32.6179 30.5477 32.5039 31.06 32.5039 31.5H34.5039C34.5039 31.4424 34.5116 31.4333 34.5041 31.4554C34.4948 31.4826 34.4698 31.5343 34.4177 31.5853C34.366 31.6358 34.3169 31.657 34.297 31.6635C34.2818 31.6684 34.2984 31.6602 34.3633 31.6602V29.6602ZM33.3119 32.4814C33.8445 32.5856 34.3076 32.7328 34.7075 32.9165L35.5425 31.0991C34.9788 30.8402 34.3612 30.6488 33.6959 30.5186L33.3119 32.4814ZM34.7369 32.9294C35.0768 33.0725 35.5568 33.3941 36.1856 33.9736L37.541 32.5029C36.8417 31.8585 36.1628 31.3597 35.5131 31.0862L34.7369 32.9294ZM36.1858 33.9738L41.3811 38.759L42.7361 37.2879L37.5408 32.5027L36.1858 33.9738ZM41.0626 37.9343C40.886 39.9066 40.3176 41.231 39.4863 42.0624C38.6688 42.8798 37.4656 43.3516 35.7305 43.3516V45.3516C37.8365 45.3516 39.6085 44.7686 40.9005 43.4766C42.1785 42.1986 42.8535 40.359 43.0546 38.1126L41.0626 37.9343ZM35.7305 43.3516C34.491 43.3516 33.4845 43.0365 32.6613 42.4455L31.4949 44.0701C32.703 44.9375 34.1314 45.3516 35.7305 45.3516V43.3516ZM32.6552 42.4411C31.655 41.7344 30.8218 40.6246 30.197 39.0265L28.3343 39.7548C29.0636 41.6202 30.1055 43.0885 31.5011 44.0745L32.6552 42.4411ZM30.1938 39.0185L28.3774 34.4873L26.521 35.2315L28.3374 39.7627L30.1938 39.0185ZM27.4492 33.8594H27.3516V35.8594H27.4492V33.8594ZM27.3516 33.8594C27.019 33.8594 26.5832 33.9264 26.2212 34.2336C25.8277 34.5674 25.707 35.0229 25.707 35.4062H27.707C27.707 35.4111 27.7065 35.4602 27.6781 35.5326C27.6472 35.6112 27.5928 35.6927 27.5151 35.7586C27.368 35.8835 27.2544 35.8594 27.3516 35.8594V33.8594ZM25.707 35.4062C25.707 35.6994 25.8031 36.0375 25.8918 36.3132C25.9937 36.6298 26.1407 37.0217 26.3273 37.4815L28.1805 36.7295C28.0025 36.2908 27.876 35.9502 27.7957 35.7005C27.7554 35.5755 27.7304 35.4845 27.7163 35.4223C27.6997 35.3494 27.707 35.3546 27.707 35.4062H25.707ZM26.3171 37.4552C26.6925 38.4608 27.2492 39.7851 27.9819 41.4206L29.8071 40.6029C29.0815 38.9832 28.5445 37.7032 28.1907 36.7557L26.3171 37.4552ZM27.8945 41.0117V42.5156H29.8945V41.0117H27.8945ZM28.2275 41.7706C27.1079 42.7729 25.398 43.3516 22.9375 43.3516V45.3516C25.6853 45.3516 27.9468 44.7063 29.5615 43.2607L28.2275 41.7706ZM22.9375 43.3516C21.6861 43.3516 20.6758 43.0693 19.8611 42.5509L18.7873 44.2382C19.9778 44.9958 21.3764 45.3516 22.9375 45.3516V43.3516ZM19.8445 42.5405C18.9952 42.0232 18.625 41.356 18.625 40.4453H16.625C16.625 42.0867 17.3876 43.3857 18.804 44.2485L19.8445 42.5405ZM18.625 40.4453V20.2891H16.625V40.4453H18.625ZM18.2991 21.0277C19.3819 20.0395 21.1305 19.4531 23.7383 19.4531V17.4531C20.8773 17.4531 18.5504 18.0907 16.9509 19.5504L18.2991 21.0277ZM23.7383 19.4531C25.0164 19.4531 26.0323 19.722 26.8338 20.2071L27.8694 18.4961C26.6917 17.7832 25.2987 17.4531 23.7383 17.4531V19.4531ZM26.8128 20.194C27.6289 20.716 28.0312 21.4437 28.0312 22.5156H30.0312C30.0312 20.8011 29.3138 19.4195 27.8903 18.5091L26.8128 20.194ZM54.0508 31.168L53.068 31.3528L53.1252 31.6566L53.3437 31.8751L54.0508 31.168ZM55.1055 31.1875L55.6093 32.0513L56.208 31.7021L56.0912 31.0189L55.1055 31.1875ZM54.4219 27.6719L55.3739 27.3659L55.366 27.3413L55.3569 27.3172L54.4219 27.6719ZM53.3086 27.2227L52.9147 26.3035L52.1776 26.6194L52.3258 27.4075L53.3086 27.2227ZM50.1836 37.0273L50.7853 36.2287L49.9661 35.6114L49.3699 36.4461L50.1836 37.0273ZM51.043 38.4922L50.6957 39.4299L50.706 39.4338L50.7164 39.4374L51.043 38.4922ZM53.6406 38.9609L54.6366 38.871L54.5595 38.0178L53.7046 37.963L53.6406 38.9609ZM54.1875 42.1641L55.0771 42.6209L55.3628 42.0645L54.9875 41.5641L54.1875 42.1641ZM52.1367 43.6289L52.5319 44.5475L52.5409 44.5436L52.1367 43.6289ZM43.5625 43.1602L43.0431 44.0147L43.0492 44.0184L43.5625 43.1602ZM41.668 39.1562L42.6381 39.3988L42.6411 39.3867L42.6438 39.3746L41.668 39.1562ZM45.8281 20.5625L45.2906 19.7193L44.9424 19.9412L44.8523 20.3442L45.8281 20.5625ZM59.8125 19.5664L59.3831 20.4695L59.3836 20.4697L59.8125 19.5664ZM63.1133 23.2969L62.1409 23.5302L62.1413 23.5319L63.1133 23.2969ZM67.5664 41.7148L68.3586 42.3251L68.651 41.9456L68.5384 41.4798L67.5664 41.7148ZM55.3789 41.2656L56.3646 41.097L56.363 41.0882L55.3789 41.2656ZM54.9492 38.8828L54.9326 37.883L53.7563 37.9026L53.9651 39.0603L54.9492 38.8828ZM58.0547 37.0273L58.6644 36.2347L58.0783 35.7839L57.4755 36.2122L58.0547 37.0273ZM53.3437 31.8751C53.7115 32.2429 54.1841 32.3242 54.5391 32.3242V30.3242C54.503 30.3242 54.5145 30.3195 54.5558 30.3327C54.6018 30.3475 54.6805 30.3835 54.7579 30.4609L53.3437 31.8751ZM54.5391 32.3242C54.898 32.3242 55.2694 32.2496 55.6093 32.0513L54.6016 30.3237C54.6134 30.3168 54.6189 30.3163 54.612 30.318C54.6043 30.3198 54.5815 30.3242 54.5391 30.3242V32.3242ZM56.0912 31.0189C55.7592 29.0782 55.5185 27.8159 55.3739 27.3659L53.4698 27.9779C53.5596 28.2571 53.7747 29.3385 54.1198 31.3561L56.0912 31.0189ZM55.3569 27.3172C55.2498 27.0349 55.0835 26.7333 54.8134 26.4959C54.5232 26.2408 54.1631 26.1055 53.7773 26.1055V28.1055C53.737 28.1055 53.6839 28.0984 53.6263 28.0767C53.5687 28.055 53.5239 28.0252 53.4932 27.9982C53.438 27.9497 53.4507 27.9312 53.4869 28.0265L55.3569 27.3172ZM53.7773 26.1055C53.4598 26.1055 53.1627 26.1972 52.9147 26.3035L53.7025 28.1418C53.7554 28.1191 53.7889 28.1089 53.805 28.1049C53.8217 28.1007 53.8106 28.1055 53.7773 28.1055V26.1055ZM52.3258 27.4075L53.068 31.3528L55.0335 30.9831L54.2914 27.0378L52.3258 27.4075ZM49.3699 36.4461C49.169 36.7273 48.9883 37.0978 48.9883 37.5352H50.9883C50.9883 37.5978 50.975 37.6382 50.9705 37.65C50.9666 37.6601 50.9703 37.6464 50.9973 37.6086L49.3699 36.4461ZM48.9883 37.5352C48.9883 38.0753 49.2528 38.5013 49.58 38.7982C49.8891 39.0787 50.2858 39.2781 50.6957 39.4299L51.3903 37.5544C51.25 37.5025 51.1427 37.4532 51.063 37.4094C50.9825 37.3652 50.9409 37.3324 50.9239 37.3171C50.9077 37.3023 50.9252 37.3137 50.947 37.3568C50.9711 37.4047 50.9883 37.4678 50.9883 37.5352H48.9883ZM50.7164 39.4374C51.5407 39.7221 52.5001 39.8899 53.5767 39.9589L53.7046 37.963C52.7499 37.9018 51.9776 37.7571 51.3695 37.547L50.7164 39.4374ZM52.6447 39.0508C52.7302 39.9985 52.8209 40.7643 52.9186 41.3363C52.9672 41.6212 53.0207 41.8766 53.0816 42.0909C53.1332 42.2725 53.2208 42.5418 53.3875 42.7641L54.9875 41.5641C55.0565 41.6561 55.0481 41.6942 55.0053 41.5439C54.9719 41.4262 54.9325 41.2486 54.89 40.9997C54.8054 40.5039 54.7203 39.7984 54.6366 38.871L52.6447 39.0508ZM53.2979 41.7073C53.2764 41.7493 53.1848 41.8802 52.908 42.0779C52.6405 42.2689 52.2557 42.4831 51.7326 42.7142L52.5409 44.5436C53.1375 44.28 53.6544 44.0025 54.0705 43.7053C54.4773 43.4148 54.8513 43.0606 55.0771 42.6209L53.2979 41.7073ZM51.7415 42.7103C50.7643 43.1308 49.6387 43.3516 48.3477 43.3516V45.3516C49.8691 45.3516 51.2696 45.0906 52.5319 44.5475L51.7415 42.7103ZM48.3477 43.3516C46.6296 43.3516 45.2199 42.9862 44.0758 42.3019L43.0492 44.0184C44.5613 44.9227 46.3418 45.3516 48.3477 45.3516V43.3516ZM44.0819 42.3056C42.9724 41.6312 42.5703 40.8843 42.5703 40.0547H40.5703C40.5703 41.7511 41.4963 43.0745 43.0431 44.0147L44.0819 42.3056ZM42.5703 40.0547C42.5703 39.7777 42.5972 39.5624 42.6381 39.3988L40.6978 38.9137C40.6085 39.2709 40.5703 39.6546 40.5703 40.0547H42.5703ZM42.6438 39.3746L46.804 20.7808L44.8523 20.3442L40.6921 38.9379L42.6438 39.3746ZM46.3657 21.4057C47.3033 20.808 48.4465 20.3241 49.8114 19.9675L49.3058 18.0325C47.7801 18.4311 46.4363 18.9889 45.2906 19.7193L46.3657 21.4057ZM49.8114 19.9675C51.1704 19.6125 52.5892 19.4336 54.0703 19.4336V17.4336C52.4264 17.4336 50.8374 17.6323 49.3058 18.0325L49.8114 19.9675ZM54.0703 19.4336C56.2006 19.4336 57.9602 19.7931 59.3831 20.4695L60.2419 18.6633C58.4877 17.8293 56.4192 17.4336 54.0703 17.4336V19.4336ZM59.3836 20.4697C60.9801 21.2278 61.8349 22.2554 62.1409 23.5302L64.0857 23.0635C63.6104 21.0831 62.2647 19.6238 60.2414 18.6631L59.3836 20.4697ZM62.1413 23.5319L66.5944 41.9499L68.5384 41.4798L64.0853 23.0619L62.1413 23.5319ZM66.7742 41.1046C65.6746 42.532 63.8203 43.3516 60.9453 43.3516V45.3516C64.1901 45.3516 66.7499 44.4133 68.3586 42.3251L66.7742 41.1046ZM60.9453 43.3516C59.5775 43.3516 58.4884 43.1054 57.6364 42.6632L56.7151 44.4384C57.9204 45.0639 59.3444 45.3516 60.9453 45.3516V43.3516ZM57.6364 42.6632C56.837 42.2483 56.4725 41.7276 56.3646 41.097L54.3932 41.4342C54.6239 42.7828 55.4573 43.7856 56.7151 44.4384L57.6364 42.6632ZM56.363 41.0882L55.9333 38.7053L53.9651 39.0603L54.3948 41.4431L56.363 41.0882ZM54.9659 39.8827C55.867 39.8677 56.7404 39.6944 57.5805 39.3643L56.8492 37.5028C56.231 37.7457 55.594 37.8719 54.9326 37.883L54.9659 39.8827ZM57.5805 39.3643C57.9872 39.2046 58.3709 39.0124 58.6699 38.7669C58.9635 38.5257 59.3086 38.1173 59.3086 37.5352H57.3086C57.3086 37.2655 57.4714 37.1631 57.4004 37.2214C57.3348 37.2753 57.1717 37.3761 56.8492 37.5028L57.5805 39.3643ZM59.3086 37.5352C59.3086 37.0073 59.0725 36.5487 58.6644 36.2347L57.445 37.82C57.4253 37.8048 57.3842 37.7661 57.3507 37.6992C57.3168 37.6314 57.3086 37.5703 57.3086 37.5352H59.3086ZM57.4755 36.2122C57.1003 36.4787 56.6136 36.7007 55.9916 36.859L56.485 38.7972C57.2953 38.591 58.0195 38.2791 58.6339 37.8425L57.4755 36.2122ZM55.9916 36.859C55.34 37.0249 54.7598 37.1016 54.2461 37.1016V39.1016C54.9563 39.1016 55.7043 38.9959 56.485 38.7972L55.9916 36.859ZM54.2461 37.1016C52.6063 37.1016 51.4972 36.765 50.7853 36.2287L49.5818 37.826C50.771 38.722 52.3703 39.1016 54.2461 39.1016V37.1016ZM69.793 19.1367L70.172 20.0621L70.1776 20.0598L69.793 19.1367ZM75.9844 18.7656L75.7097 19.7271L75.7197 19.73L75.7299 19.7327L75.9844 18.7656ZM77.6836 19.5273L78.4689 18.9082L78.3978 18.8181L78.3083 18.7465L77.6836 19.5273ZM82.1367 26.5195L81.2796 27.0347L81.571 27.5195H82.1367V26.5195ZM82.2148 24.8594L81.35 25.3615L81.3556 25.3709L82.2148 24.8594ZM80.1055 21.2266H79.1055V21.4958L79.2407 21.7287L80.1055 21.2266ZM80.1055 20.1523L79.4698 19.3804L79.1055 19.6804V20.1523H80.1055ZM89.4805 19.332L89.9978 18.4762L89.9885 18.4707L89.4805 19.332ZM89.6562 43.6289L89.2267 42.7258L89.2178 42.7301L89.209 42.7345L89.6562 43.6289ZM83.5234 44.0391L83.2997 45.0137L83.3032 45.0145L83.5234 44.0391ZM81.6484 43.3359L80.86 43.9511L80.9679 44.0893L81.1163 44.1826L81.6484 43.3359ZM78.8945 39.3516L78.037 39.8661L78.0407 39.8721L78.0444 39.8782L78.8945 39.3516ZM76.9023 36.0312L77.7598 35.5168L77.42 34.9504L76.7657 35.0406L76.9023 36.0312ZM76.9023 37.9062L76.0464 38.4234L76.052 38.4325L76.9023 37.9062ZM79.3438 41.8516H80.3438V41.5672L80.1941 41.3254L79.3438 41.8516ZM79.3438 42.8867L79.8867 43.7265L80.3438 43.431V42.8867H79.3438ZM69.7734 43.3164L69.2306 44.1563L69.2352 44.1592L69.7734 43.3164ZM69.1719 40.3867V20.8164H67.1719V40.3867H69.1719ZM69.1719 20.8164C69.1719 20.7758 69.1775 20.7067 69.2967 20.5831C69.4348 20.44 69.7016 20.2548 70.172 20.0621L69.4139 18.2113C68.2531 18.6868 67.1719 19.4885 67.1719 20.8164H69.1719ZM70.1776 20.0598C71.1239 19.6655 72.2704 19.4531 73.6406 19.4531V17.4531C72.0681 17.4531 70.6496 17.6965 69.4084 18.2136L70.1776 20.0598ZM73.6406 19.4531C74.3901 19.4531 75.0782 19.5467 75.7097 19.7271L76.2591 17.8041C75.4322 17.5679 74.5578 17.4531 73.6406 17.4531V19.4531ZM75.7299 19.7327C76.402 19.9096 76.8198 20.1169 77.0589 20.3082L78.3083 18.7465C77.7662 18.3128 77.0511 18.0123 76.2389 17.7986L75.7299 19.7327ZM76.8983 20.1465C77.4112 20.7969 77.879 21.4583 78.3022 22.1305L79.9947 21.0648C79.5325 20.3308 79.0237 19.6119 78.4689 18.9082L76.8983 20.1465ZM78.3022 22.1305C78.7382 22.823 79.7285 24.4538 81.2796 27.0347L82.9938 26.0044C81.446 23.429 80.4441 21.7786 79.9947 21.0648L78.3022 22.1305ZM82.1367 27.5195C82.5109 27.5195 82.8555 27.3945 83.1413 27.1722L81.9134 25.5935C81.9338 25.5776 81.9668 25.5571 82.0114 25.5415C82.0565 25.5257 82.1002 25.5195 82.1367 25.5195V27.5195ZM83.1413 27.1722C83.5576 26.8484 83.7031 26.3856 83.7031 25.9727H81.7031C81.7031 25.9581 81.7054 25.8988 81.74 25.818C81.7772 25.7312 81.8382 25.652 81.9134 25.5935L83.1413 27.1722ZM83.7031 25.9727C83.7031 25.6545 83.5868 25.3513 83.4968 25.1462C83.3924 24.908 83.2475 24.6392 83.0741 24.3479L81.3556 25.3709C81.5077 25.6264 81.607 25.8166 81.6653 25.9495C81.6942 26.0155 81.707 26.0539 81.7115 26.0694C81.7177 26.0911 81.7031 26.0518 81.7031 25.9727H83.7031ZM83.0796 24.3572L80.9703 20.7244L79.2407 21.7287L81.3501 25.3615L83.0796 24.3572ZM81.1055 21.2266V20.1523H79.1055V21.2266H81.1055ZM80.7412 20.9243C81.2918 20.4708 81.9805 20.1036 82.8278 19.8366L82.2268 17.929C81.1731 18.261 80.2473 18.7401 79.4698 19.3804L80.7412 20.9243ZM82.8278 19.8366C83.6793 19.5683 84.5609 19.4336 85.4766 19.4336V17.4336C84.361 17.4336 83.2764 17.5983 82.2268 17.929L82.8278 19.8366ZM85.4766 19.4336C87.0199 19.4336 88.1606 19.7146 88.9725 20.1934L89.9885 18.4707C88.7691 17.7516 87.2405 17.4336 85.4766 17.4336V19.4336ZM88.9632 20.1879C89.814 20.7021 90.2578 21.4759 90.2578 22.6914H92.2578C92.2578 20.8601 91.5167 19.3943 89.9977 18.4762L88.9632 20.1879ZM90.2578 22.6914V41.1875H92.2578V22.6914H90.2578ZM90.2578 41.1875C90.2578 41.5826 90.1659 41.8687 90.0213 42.0892C89.8745 42.313 89.6307 42.5337 89.2267 42.7258L90.0858 44.532C90.7495 44.2163 91.3065 43.7762 91.6936 43.1862C92.0828 42.5929 92.2578 41.9122 92.2578 41.1875H90.2578ZM89.209 42.7345C88.4881 43.095 87.4425 43.3125 86.0039 43.3125V45.3125C87.6121 45.3125 89.0015 45.0743 90.1035 44.5233L89.209 42.7345ZM86.0039 43.3125C85.23 43.3125 84.4771 43.2292 83.7437 43.0636L83.3032 45.0145C84.1844 45.2135 85.0851 45.3125 86.0039 45.3125V43.3125ZM83.7471 43.0644C83.0119 42.8957 82.5058 42.6937 82.1806 42.4893L81.1163 44.1826C81.7025 44.5511 82.4465 44.8179 83.2997 45.0137L83.7471 43.0644ZM82.4369 42.7208C81.5375 41.5681 80.6399 40.2702 79.7446 38.8249L78.0444 39.8782C78.9721 41.3757 79.9104 42.7339 80.86 43.9511L82.4369 42.7208ZM79.752 38.8371L77.7598 35.5168L76.0449 36.5457L78.037 39.8661L79.752 38.8371ZM76.7657 35.0406C76.435 35.0862 76.0486 35.2164 75.7473 35.5385C75.4361 35.8712 75.3359 36.279 75.3359 36.6367H77.3359C77.3359 36.6429 77.3302 36.774 77.2078 36.9048C77.0953 37.0252 76.9921 37.0283 77.039 37.0219L76.7657 35.0406ZM75.3359 36.6367C75.3359 36.9721 75.4618 37.2977 75.5643 37.5276C75.6822 37.7919 75.8469 38.0931 76.0464 38.4234L77.7583 37.3891C77.5802 37.0944 77.4616 36.8715 77.3908 36.7127C77.3555 36.6337 77.3383 36.5842 77.331 36.5595C77.3219 36.5282 77.3359 36.5613 77.3359 36.6367H75.3359ZM76.052 38.4325L78.4934 42.3778L80.1941 41.3254L77.7527 37.38L76.052 38.4325ZM78.3438 41.8516V42.8867H80.3438V41.8516H78.3438ZM78.8008 42.047C77.4616 42.9128 75.9465 43.3516 74.2266 43.3516V45.3516C76.3087 45.3516 78.2051 44.8137 79.8867 43.7265L78.8008 42.047ZM74.2266 43.3516C72.4445 43.3516 71.1726 43.0234 70.3116 42.4736L69.2352 44.1592C70.5357 44.9896 72.2326 45.3516 74.2266 45.3516V43.3516ZM70.3163 42.4766C69.5313 41.9692 69.1719 41.3076 69.1719 40.3867H67.1719C67.1719 41.9918 67.8801 43.2834 69.2306 44.1563L70.3163 42.4766ZM103.309 36.3633H102.309V36.8633L102.709 37.1633L103.309 36.3633ZM104.344 33.8633L103.449 34.3105L103.46 34.3323L103.472 34.3535L104.344 33.8633ZM103.289 33.6289L102.793 32.7607L102.167 33.1183L102.308 33.825L103.289 33.6289ZM103.309 29H102.309V29.5L102.709 29.8L103.309 29ZM104.344 26.6953L103.449 27.1425L103.466 27.1769L103.486 27.2098L104.344 26.6953ZM103.289 26.4609L102.793 25.5927L102.167 25.9503L102.308 26.6571L103.289 26.4609ZM93.4453 20.4648L92.839 19.6696L92.8386 19.6699L93.4453 20.4648ZM98.9531 18.6094L98.7933 17.6222L98.7871 17.6232L98.9531 18.6094ZM112.332 20.543L112.935 19.7451L112.934 19.7442L112.332 20.543ZM114.559 28.082L115.497 28.4277L115.499 28.4225L114.559 28.082ZM113.387 29.7617L112.933 30.6528L113.486 30.9344L113.983 30.5642L113.387 29.7617ZM110.477 30.0547H109.477V31.0147L110.436 31.0539L110.477 30.0547ZM114.949 32.125L115.729 31.4992L115.722 31.4909L114.949 32.125ZM112.957 42.4766L113.434 43.3555L113.434 43.3554L112.957 42.4766ZM96.6875 43.9414L96.5499 44.9319L96.5589 44.9331L96.6875 43.9414ZM102.709 37.1633C102.859 37.2762 103.008 37.3264 103.087 37.3493C103.177 37.3755 103.262 37.3899 103.331 37.3988C103.467 37.4166 103.614 37.4219 103.758 37.4219V35.4219C103.654 35.4219 103.603 35.4174 103.589 35.4156C103.583 35.4147 103.605 35.417 103.645 35.4286C103.666 35.4346 103.699 35.4456 103.741 35.464C103.781 35.4819 103.841 35.5128 103.909 35.5633L102.709 37.1633ZM103.758 37.4219C104.26 37.4219 104.766 37.234 105.117 36.7777L103.532 35.5583C103.564 35.5162 103.614 35.4735 103.676 35.4459C103.733 35.4204 103.768 35.4219 103.758 35.4219V37.4219ZM105.117 36.7777C105.463 36.3281 105.52 35.7331 105.52 35.2695H103.52C103.52 35.4391 103.506 35.5456 103.494 35.604C103.48 35.6676 103.476 35.6303 103.532 35.5583L105.117 36.7777ZM105.52 35.2695V34.8984H103.52V35.2695H105.52ZM105.52 34.8984C105.52 34.3864 105.466 33.8189 105.215 33.373L103.472 34.3535C103.455 34.3225 103.472 34.3388 103.49 34.4457C103.507 34.5467 103.52 34.6944 103.52 34.8984H105.52ZM105.238 33.4161C105.108 33.1554 104.906 32.9213 104.625 32.7607C104.351 32.6038 104.06 32.5508 103.797 32.5508V34.5508C103.794 34.5508 103.725 34.5499 103.633 34.4971C103.534 34.4407 103.475 34.3628 103.449 34.3105L105.238 33.4161ZM103.797 32.5508C103.643 32.5508 103.484 32.5586 103.332 32.5819C103.193 32.6033 102.991 32.6475 102.793 32.7607L103.785 34.4971C103.755 34.5146 103.728 34.5269 103.708 34.5353C103.687 34.5437 103.671 34.5492 103.659 34.5526C103.638 34.559 103.629 34.5599 103.636 34.5587C103.643 34.5576 103.66 34.5555 103.688 34.5537C103.716 34.552 103.752 34.5508 103.797 34.5508V32.5508ZM102.308 33.825C102.305 33.8054 102.304 33.7947 102.304 33.7967C102.304 33.7978 102.305 33.805 102.305 33.8195C102.307 33.8492 102.309 33.8952 102.309 33.9609H104.309C104.309 33.8031 104.304 33.6043 104.27 33.4328L102.308 33.825ZM102.309 33.9609V36.3633H104.309V33.9609H102.309ZM102.709 29.8C102.859 29.9129 103.008 29.9631 103.087 29.986C103.177 30.0122 103.262 30.0267 103.331 30.0355C103.467 30.0533 103.614 30.0586 103.758 30.0586V28.0586C103.654 28.0586 103.603 28.0541 103.589 28.0523C103.583 28.0515 103.605 28.0537 103.645 28.0653C103.666 28.0714 103.699 28.0823 103.741 28.1007C103.781 28.1187 103.841 28.1496 103.909 28.2L102.709 29.8ZM103.758 30.0586C104.318 30.0586 104.829 29.8113 105.156 29.3203L103.492 28.2109C103.511 28.1827 103.554 28.134 103.626 28.0971C103.695 28.0613 103.748 28.0586 103.758 28.0586V30.0586ZM105.156 29.3203C105.457 28.8699 105.52 28.3 105.52 27.8086H103.52C103.52 27.985 103.506 28.1049 103.491 28.1799C103.475 28.2584 103.464 28.2538 103.492 28.2109L105.156 29.3203ZM105.52 27.8086V27.6914H103.52V27.8086H105.52ZM105.52 27.6914C105.52 27.1962 105.468 26.6252 105.201 26.1808L103.486 27.2098C103.459 27.165 103.474 27.1666 103.491 27.2646C103.507 27.3559 103.52 27.4946 103.52 27.6914H105.52ZM105.238 26.2481C105.108 25.9874 104.906 25.7533 104.625 25.5927C104.351 25.4358 104.06 25.3828 103.797 25.3828V27.3828C103.794 27.3828 103.725 27.3819 103.633 27.3292C103.534 27.2727 103.475 27.1949 103.449 27.1425L105.238 26.2481ZM103.797 25.3828C103.643 25.3828 103.484 25.3906 103.332 25.414C103.193 25.4354 102.991 25.4796 102.793 25.5927L103.785 27.3292C103.755 27.3466 103.728 27.3589 103.708 27.3673C103.687 27.3757 103.671 27.3812 103.659 27.3846C103.638 27.391 103.629 27.3919 103.636 27.3907C103.643 27.3896 103.66 27.3875 103.688 27.3857C103.716 27.384 103.752 27.3828 103.797 27.3828V25.3828ZM102.308 26.6571C102.305 26.6375 102.304 26.6267 102.304 26.6287C102.304 26.6299 102.305 26.637 102.305 26.6515C102.307 26.6812 102.309 26.7272 102.309 26.793H104.309C104.309 26.6352 104.304 26.4364 104.27 26.2648L102.308 26.6571ZM102.309 26.793V29H104.309V26.793H102.309ZM93.7031 21.4805C93.7031 21.6127 93.6488 21.6566 93.6961 21.592C93.7428 21.528 93.8478 21.4156 94.052 21.2598L92.8386 19.6699C92.548 19.8917 92.282 20.1373 92.0813 20.4119C91.8811 20.6858 91.7031 21.0487 91.7031 21.4805H93.7031ZM94.0517 21.26C94.888 20.6223 96.5158 20.0337 99.1191 19.5955L98.7871 17.6232C96.1301 18.0705 94.0859 18.7188 92.839 19.6696L94.0517 21.26ZM99.1129 19.5965C100.419 19.3851 101.868 19.2773 103.465 19.2773V17.2773C101.78 17.2773 100.222 17.3909 98.7933 17.6222L99.1129 19.5965ZM103.465 19.2773C107.267 19.2773 109.971 20.0166 111.73 21.3417L112.934 19.7442C110.682 18.0485 107.475 17.2773 103.465 17.2773V19.2773ZM111.729 21.3408C113.243 22.4843 113.969 23.9364 113.969 25.7773H115.969C115.969 23.2953 114.937 21.2579 112.935 19.7451L111.729 21.3408ZM113.969 25.7773C113.969 26.4392 113.853 27.0924 113.618 27.7416L115.499 28.4225C115.811 27.5612 115.969 26.6779 115.969 25.7773H113.969ZM113.62 27.7363C113.397 28.3418 113.107 28.7234 112.79 28.9593L113.983 30.5642C114.682 30.0448 115.173 29.3066 115.497 28.4277L113.62 27.7363ZM113.841 28.8707C113.04 28.4626 112.221 28.2344 111.395 28.2344V30.2344C111.845 30.2344 112.354 30.3577 112.933 30.6528L113.841 28.8707ZM111.395 28.2344C110.987 28.2344 110.511 28.3103 110.111 28.6102L111.311 30.2102C111.265 30.2445 111.236 30.25 111.248 30.2468C111.262 30.2432 111.307 30.2344 111.395 30.2344V28.2344ZM110.111 28.6102C109.582 29.0069 109.477 29.618 109.477 30.0547H111.477C111.477 29.9752 111.487 29.9668 111.475 30.0009C111.459 30.0443 111.413 30.1335 111.311 30.2102L110.111 28.6102ZM110.436 31.0539C112.108 31.1221 113.315 31.7092 114.176 32.7591L115.722 31.4909C114.448 29.9367 112.673 29.1435 110.517 29.0555L110.436 31.0539ZM114.169 32.7507C114.956 33.731 115.375 34.9713 115.375 36.5391H117.375C117.375 34.5912 116.844 32.8888 115.729 31.4993L114.169 32.7507ZM115.375 36.5391C115.375 37.7583 115.121 38.7545 114.654 39.5656C114.188 40.3741 113.479 41.0552 112.48 41.5977L113.434 43.3554C114.713 42.6609 115.713 41.734 116.387 40.5634C117.06 39.3953 117.375 38.0412 117.375 36.5391H115.375ZM112.48 41.5976C110.564 42.6373 107.549 43.2148 103.309 43.2148V45.2148C107.662 45.2148 111.079 44.6335 113.434 43.3555L112.48 41.5976ZM103.309 43.2148C100.307 43.2148 98.1545 43.1232 96.8161 42.9497L96.5589 44.9331C98.033 45.1242 100.294 45.2148 103.309 45.2148V43.2148ZM96.8251 42.9509C95.5388 42.7723 94.7917 42.3836 94.388 41.9294L92.8932 43.2581C93.7395 44.2102 95.0237 44.7199 96.5499 44.9319L96.8251 42.9509ZM94.388 41.9294C93.9925 41.4844 93.7031 40.7016 93.7031 39.3906H91.7031C91.7031 40.9443 92.0388 42.2969 92.8932 43.2581L94.388 41.9294ZM93.7031 39.3906V21.4805H91.7031V39.3906H93.7031ZM129.168 31.168L128.185 31.3528L128.242 31.6566L128.461 31.8751L129.168 31.168ZM130.223 31.1875L130.727 32.0513L131.325 31.7021L131.208 31.0189L130.223 31.1875ZM129.539 27.6719L130.491 27.3659L130.483 27.3413L130.474 27.3172L129.539 27.6719ZM128.426 27.2227L128.032 26.3035L127.295 26.6194L127.443 27.4075L128.426 27.2227ZM125.301 37.0273L125.903 36.2287L125.083 35.6114L124.487 36.4461L125.301 37.0273ZM126.16 38.4922L125.813 39.4299L125.823 39.4338L125.834 39.4374L126.16 38.4922ZM128.758 38.9609L129.754 38.871L129.677 38.0178L128.822 37.963L128.758 38.9609ZM129.305 42.1641L130.194 42.6209L130.48 42.0645L130.105 41.5641L129.305 42.1641ZM127.254 43.6289L127.649 44.5475L127.658 44.5436L127.254 43.6289ZM118.68 43.1602L118.16 44.0147L118.166 44.0184L118.68 43.1602ZM116.785 39.1562L117.755 39.3988L117.758 39.3867L117.761 39.3746L116.785 39.1562ZM120.945 20.5625L120.408 19.7193L120.06 19.9412L119.969 20.3442L120.945 20.5625ZM134.93 19.5664L134.5 20.4695L134.501 20.4697L134.93 19.5664ZM138.23 23.2969L137.258 23.5302L137.258 23.5319L138.23 23.2969ZM142.684 41.7148L143.476 42.3251L143.768 41.9456L143.656 41.4798L142.684 41.7148ZM130.496 41.2656L131.482 41.097L131.48 41.0882L130.496 41.2656ZM130.066 38.8828L130.05 37.883L128.874 37.9026L129.082 39.0603L130.066 38.8828ZM133.172 37.0273L133.782 36.2347L133.195 35.7839L132.593 36.2122L133.172 37.0273ZM128.461 31.8751C128.829 32.2429 129.301 32.3242 129.656 32.3242V30.3242C129.62 30.3242 129.632 30.3195 129.673 30.3327C129.719 30.3475 129.798 30.3835 129.875 30.4609L128.461 31.8751ZM129.656 32.3242C130.015 32.3242 130.387 32.2496 130.727 32.0513L129.719 30.3237C129.731 30.3168 129.736 30.3163 129.729 30.318C129.721 30.3198 129.699 30.3242 129.656 30.3242V32.3242ZM131.208 31.0189C130.876 29.0782 130.636 27.8159 130.491 27.3659L128.587 27.9779C128.677 28.2571 128.892 29.3385 129.237 31.3561L131.208 31.0189ZM130.474 27.3172C130.367 27.0349 130.201 26.7333 129.931 26.4959C129.64 26.2408 129.28 26.1055 128.895 26.1055V28.1055C128.854 28.1055 128.801 28.0984 128.743 28.0767C128.686 28.055 128.641 28.0252 128.61 27.9982C128.555 27.9497 128.568 27.9312 128.604 28.0265L130.474 27.3172ZM128.895 26.1055C128.577 26.1055 128.28 26.1972 128.032 26.3035L128.82 28.1418C128.873 28.1191 128.906 28.1089 128.922 28.1049C128.939 28.1007 128.928 28.1055 128.895 28.1055V26.1055ZM127.443 27.4075L128.185 31.3528L130.151 30.9831L129.409 27.0378L127.443 27.4075ZM124.487 36.4461C124.286 36.7273 124.105 37.0978 124.105 37.5352H126.105C126.105 37.5978 126.092 37.6382 126.088 37.65C126.084 37.6601 126.088 37.6464 126.115 37.6086L124.487 36.4461ZM124.105 37.5352C124.105 38.0753 124.37 38.5013 124.697 38.7982C125.006 39.0787 125.403 39.2781 125.813 39.4299L126.507 37.5544C126.367 37.5025 126.26 37.4532 126.18 37.4094C126.1 37.3652 126.058 37.3324 126.041 37.3171C126.025 37.3023 126.042 37.3137 126.064 37.3568C126.088 37.4047 126.105 37.4678 126.105 37.5352H124.105ZM125.834 39.4374C126.658 39.7221 127.617 39.8899 128.694 39.9589L128.822 37.963C127.867 37.9018 127.095 37.7571 126.487 37.547L125.834 39.4374ZM127.762 39.0508C127.847 39.9985 127.938 40.7643 128.036 41.3363C128.084 41.6212 128.138 41.8766 128.199 42.0909C128.25 42.2725 128.338 42.5418 128.505 42.7641L130.105 41.5641C130.174 41.6561 130.165 41.6942 130.123 41.5439C130.089 41.4262 130.05 41.2486 130.007 40.9997C129.923 40.5039 129.837 39.7984 129.754 38.871L127.762 39.0508ZM128.415 41.7073C128.394 41.7493 128.302 41.8802 128.025 42.0779C127.758 42.2689 127.373 42.4831 126.85 42.7142L127.658 44.5436C128.255 44.28 128.772 44.0025 129.188 43.7053C129.594 43.4148 129.968 43.0606 130.194 42.6209L128.415 41.7073ZM126.859 42.7103C125.881 43.1308 124.756 43.3516 123.465 43.3516V45.3516C124.986 45.3516 126.387 45.0906 127.649 44.5475L126.859 42.7103ZM123.465 43.3516C121.747 43.3516 120.337 42.9862 119.193 42.3019L118.166 44.0184C119.679 44.9227 121.459 45.3516 123.465 45.3516V43.3516ZM119.199 42.3056C118.09 41.6312 117.688 40.8843 117.688 40.0547H115.688C115.688 41.7511 116.614 43.0745 118.16 44.0147L119.199 42.3056ZM117.688 40.0547C117.688 39.7777 117.714 39.5624 117.755 39.3988L115.815 38.9137C115.726 39.2709 115.688 39.6546 115.688 40.0547H117.688ZM117.761 39.3746L121.921 20.7808L119.969 20.3442L115.809 38.9379L117.761 39.3746ZM121.483 21.4057C122.421 20.808 123.564 20.3241 124.929 19.9675L124.423 18.0325C122.897 18.4311 121.553 18.9889 120.408 19.7193L121.483 21.4057ZM124.929 19.9675C126.288 19.6125 127.706 19.4336 129.188 19.4336V17.4336C127.544 17.4336 125.955 17.6323 124.423 18.0325L124.929 19.9675ZM129.188 19.4336C131.318 19.4336 133.077 19.7931 134.5 20.4695L135.359 18.6633C133.605 17.8293 131.536 17.4336 129.188 17.4336V19.4336ZM134.501 20.4697C136.097 21.2278 136.952 22.2554 137.258 23.5302L139.203 23.0635C138.728 21.0831 137.382 19.6238 135.359 18.6631L134.501 20.4697ZM137.258 23.5319L141.712 41.9499L143.656 41.4798L139.202 23.0619L137.258 23.5319ZM141.891 41.1046C140.792 42.532 138.938 43.3516 136.062 43.3516V45.3516C139.307 45.3516 141.867 44.4133 143.476 42.3251L141.891 41.1046ZM136.062 43.3516C134.695 43.3516 133.606 43.1054 132.754 42.6632L131.832 44.4384C133.038 45.0639 134.462 45.3516 136.062 45.3516V43.3516ZM132.754 42.6632C131.954 42.2483 131.59 41.7276 131.482 41.097L129.51 41.4342C129.741 42.7828 130.574 43.7856 131.832 44.4384L132.754 42.6632ZM131.48 41.0882L131.051 38.7053L129.082 39.0603L129.512 41.4431L131.48 41.0882ZM130.083 39.8827C130.984 39.8677 131.858 39.6944 132.698 39.3643L131.966 37.5028C131.348 37.7457 130.711 37.8719 130.05 37.883L130.083 39.8827ZM132.698 39.3643C133.104 39.2046 133.488 39.0124 133.787 38.7669C134.081 38.5257 134.426 38.1173 134.426 37.5352H132.426C132.426 37.2655 132.589 37.1631 132.518 37.2214C132.452 37.2753 132.289 37.3761 131.966 37.5028L132.698 39.3643ZM134.426 37.5352C134.426 37.0073 134.19 36.5487 133.782 36.2347L132.562 37.82C132.542 37.8048 132.501 37.7661 132.468 37.6992C132.434 37.6314 132.426 37.5703 132.426 37.5352H134.426ZM132.593 36.2122C132.218 36.4787 131.731 36.7007 131.109 36.859L131.602 38.7972C132.412 38.591 133.137 38.2791 133.751 37.8425L132.593 36.2122ZM131.109 36.859C130.457 37.0249 129.877 37.1016 129.363 37.1016V39.1016C130.074 39.1016 130.821 38.9959 131.602 38.7972L131.109 36.859ZM129.363 37.1016C127.723 37.1016 126.614 36.765 125.903 36.2287L124.699 37.826C125.888 38.722 127.487 39.1016 129.363 39.1016V37.1016ZM144.91 19.1367L145.289 20.0621L145.295 20.0598L144.91 19.1367ZM151.102 18.7656L150.827 19.7271L150.837 19.73L150.847 19.7327L151.102 18.7656ZM152.801 19.5273L153.586 18.9082L153.515 18.8181L153.425 18.7465L152.801 19.5273ZM157.254 26.5195L156.397 27.0347L156.688 27.5195H157.254V26.5195ZM157.332 24.8594L156.467 25.3615L156.473 25.3709L157.332 24.8594ZM155.223 21.2266H154.223V21.4958L154.358 21.7287L155.223 21.2266ZM155.223 20.1523L154.587 19.3804L154.223 19.6804V20.1523H155.223ZM164.598 19.332L165.115 18.4762L165.106 18.4707L164.598 19.332ZM164.773 43.6289L164.344 42.7258L164.335 42.7301L164.326 42.7345L164.773 43.6289ZM158.641 44.0391L158.417 45.0137L158.42 45.0145L158.641 44.0391ZM156.766 43.3359L155.977 43.9511L156.085 44.0893L156.233 44.1826L156.766 43.3359ZM154.012 39.3516L153.154 39.8661L153.158 39.8721L153.162 39.8782L154.012 39.3516ZM152.02 36.0312L152.877 35.5168L152.537 34.9504L151.883 35.0406L152.02 36.0312ZM152.02 37.9062L151.164 38.4234L151.169 38.4325L152.02 37.9062ZM154.461 41.8516H155.461V41.5672L155.311 41.3254L154.461 41.8516ZM154.461 42.8867L155.004 43.7265L155.461 43.431V42.8867H154.461ZM144.891 43.3164L144.348 44.1563L144.352 44.1592L144.891 43.3164ZM144.289 40.3867V20.8164H142.289V40.3867H144.289ZM144.289 20.8164C144.289 20.7758 144.295 20.7067 144.414 20.5831C144.552 20.44 144.819 20.2548 145.289 20.0621L144.531 18.2113C143.37 18.6868 142.289 19.4885 142.289 20.8164H144.289ZM145.295 20.0598C146.241 19.6655 147.388 19.4531 148.758 19.4531V17.4531C147.185 17.4531 145.767 17.6965 144.526 18.2136L145.295 20.0598ZM148.758 19.4531C149.507 19.4531 150.195 19.5467 150.827 19.7271L151.376 17.8041C150.549 17.5679 149.675 17.4531 148.758 17.4531V19.4531ZM150.847 19.7327C151.519 19.9096 151.937 20.1169 152.176 20.3082L153.425 18.7465C152.883 18.3128 152.168 18.0123 151.356 17.7986L150.847 19.7327ZM152.016 20.1465C152.528 20.7969 152.996 21.4583 153.419 22.1305L155.112 21.0648C154.65 20.3308 154.141 19.6119 153.586 18.9082L152.016 20.1465ZM153.419 22.1305C153.855 22.823 154.846 24.4538 156.397 27.0347L158.111 26.0044C156.563 23.429 155.561 21.7786 155.112 21.0648L153.419 22.1305ZM157.254 27.5195C157.628 27.5195 157.973 27.3945 158.258 27.1722L157.031 25.5935C157.051 25.5776 157.084 25.5571 157.129 25.5415C157.174 25.5257 157.217 25.5195 157.254 25.5195V27.5195ZM158.258 27.1722C158.675 26.8484 158.82 26.3856 158.82 25.9727H156.82C156.82 25.9581 156.823 25.8988 156.857 25.818C156.894 25.7312 156.955 25.652 157.031 25.5935L158.258 27.1722ZM158.82 25.9727C158.82 25.6545 158.704 25.3513 158.614 25.1462C158.51 24.908 158.365 24.6392 158.191 24.3479L156.473 25.3709C156.625 25.6264 156.724 25.8166 156.782 25.9495C156.811 26.0155 156.824 26.0539 156.829 26.0694C156.835 26.0911 156.82 26.0518 156.82 25.9727H158.82ZM158.197 24.3572L156.087 20.7244L154.358 21.7287L156.467 25.3615L158.197 24.3572ZM156.223 21.2266V20.1523H154.223V21.2266H156.223ZM155.858 20.9243C156.409 20.4708 157.098 20.1036 157.945 19.8366L157.344 17.929C156.29 18.261 155.364 18.7401 154.587 19.3804L155.858 20.9243ZM157.945 19.8366C158.796 19.5683 159.678 19.4336 160.594 19.4336V17.4336C159.478 17.4336 158.394 17.5983 157.344 17.929L157.945 19.8366ZM160.594 19.4336C162.137 19.4336 163.278 19.7146 164.09 20.1934L165.106 18.4707C163.886 17.7516 162.358 17.4336 160.594 17.4336V19.4336ZM164.08 20.1879C164.931 20.7021 165.375 21.4759 165.375 22.6914H167.375C167.375 20.8601 166.634 19.3943 165.115 18.4762L164.08 20.1879ZM165.375 22.6914V41.1875H167.375V22.6914H165.375ZM165.375 41.1875C165.375 41.5826 165.283 41.8687 165.138 42.0892C164.992 42.313 164.748 42.5337 164.344 42.7258L165.203 44.532C165.867 44.2163 166.424 43.7762 166.811 43.1862C167.2 42.5929 167.375 41.9122 167.375 41.1875H165.375ZM164.326 42.7345C163.605 43.095 162.56 43.3125 161.121 43.3125V45.3125C162.729 45.3125 164.119 45.0743 165.221 44.5233L164.326 42.7345ZM161.121 43.3125C160.347 43.3125 159.594 43.2292 158.861 43.0636L158.42 45.0145C159.302 45.2135 160.202 45.3125 161.121 45.3125V43.3125ZM158.864 43.0644C158.129 42.8957 157.623 42.6937 157.298 42.4893L156.233 44.1826C156.82 44.5511 157.564 44.8179 158.417 45.0137L158.864 43.0644ZM157.554 42.7208C156.655 41.5681 155.757 40.2702 154.862 38.8249L153.162 39.8782C154.089 41.3757 155.028 42.7339 155.977 43.9511L157.554 42.7208ZM154.869 38.8371L152.877 35.5168L151.162 36.5457L153.154 39.8661L154.869 38.8371ZM151.883 35.0406C151.552 35.0862 151.166 35.2164 150.864 35.5385C150.553 35.8712 150.453 36.279 150.453 36.6367H152.453C152.453 36.6429 152.447 36.774 152.325 36.9048C152.212 37.0252 152.109 37.0283 152.156 37.0219L151.883 35.0406ZM150.453 36.6367C150.453 36.9721 150.579 37.2977 150.681 37.5276C150.799 37.7919 150.964 38.0931 151.164 38.4234L152.875 37.3891C152.697 37.0944 152.579 36.8715 152.508 36.7127C152.473 36.6337 152.455 36.5842 152.448 36.5595C152.439 36.5282 152.453 36.5613 152.453 36.6367H150.453ZM151.169 38.4325L153.611 42.3778L155.311 41.3254L152.87 37.38L151.169 38.4325ZM153.461 41.8516V42.8867H155.461V41.8516H153.461ZM153.918 42.047C152.579 42.9128 151.064 43.3516 149.344 43.3516V45.3516C151.426 45.3516 153.322 44.8137 155.004 43.7265L153.918 42.047ZM149.344 43.3516C147.562 43.3516 146.29 43.0234 145.429 42.4736L144.352 44.1592C145.653 44.9896 147.35 45.3516 149.344 45.3516V43.3516ZM145.433 42.4766C144.649 41.9692 144.289 41.3076 144.289 40.3867H142.289C142.289 41.9918 142.997 43.2834 144.348 44.1563L145.433 42.4766Z" fill="black" mask="url(#path-1-outside-1_535_9)"/>
</g>
<defs>
<linearGradient id="paint0_linear_535_9" x1="17" y1="19.25" x2="209.07" y2="21.7884" gradientUnits="userSpaceOnUse">
<stop stop-color="#FFFFA7"/>
<stop offset="0.333333" stop-color="#B9DDFF" stop-opacity="0.802083"/>
<stop offset="0.536458" stop-color="#FFC8F9" stop-opacity="0.588542"/>
<stop offset="0.729167" stop-color="#35FFB9" stop-opacity="0.105805"/>
<stop offset="1" stop-color="#84FFCE" stop-opacity="0"/>
</linearGradient>
<clipPath id="clip0_535_9">
<rect width="186" height="59" fill="white"/>
</clipPath>
</defs>
</svg>
