<svg width="146" height="40" viewBox="0 0 146 40" fill="none" xmlns="http://www.w3.org/2000/svg">
<g clip-path="url(#clip0_535_9)">
<rect width="146" height="40" fill="white"/>
<mask id="path-1-outside-1_535_9" maskUnits="userSpaceOnUse" x="7" y="8" width="133" height="26" fill="black">
<rect fill="white" x="7" y="8" width="133" height="26"/>
<path d="M18.5273 13.2012V13.9702C18.0716 14.9159 17.7241 15.6564 17.4849 16.1919C17.2456 16.716 17.126 17.0749 17.126 17.2686C17.126 17.599 17.314 17.7642 17.6899 17.7642L21.0566 10.3813C21.8428 9.86865 22.9137 9.6123 24.2695 9.6123C25.6367 9.6123 26.8102 9.98828 27.79 10.7402C28.861 11.5833 29.3965 12.734 29.3965 14.1924C29.3965 15.4115 28.9806 16.6134 28.1489 17.7983C27.3172 18.9718 26.2292 19.9915 24.8848 20.8574C24.2581 20.5042 23.6942 20.3276 23.1929 20.3276C22.6916 20.3276 22.4409 20.5726 22.4409 21.0625C22.965 21.165 23.4378 21.3132 23.8594 21.5068C24.2923 21.6891 24.7993 22.048 25.3804 22.5835L29.9263 26.7705C29.5959 30.4619 27.7502 32.3076 24.3892 32.3076C23.1473 32.3076 22.082 31.9886 21.1934 31.3506C20.1452 30.61 19.3249 29.4821 18.7324 27.9668L17.1431 24.002H17.0576C16.6816 24.002 16.4937 24.1615 16.4937 24.4805C16.4937 24.6855 16.6532 25.1812 16.9722 25.9673C17.2912 26.8218 17.7697 27.9611 18.4077 29.3853V30.7012C17.2114 31.7721 15.474 32.3076 13.1953 32.3076C11.9648 32.3076 10.911 32.0285 10.0337 31.4702C9.04248 30.8664 8.54688 30.0062 8.54688 28.8896V11.2529C9.72038 10.182 11.5034 9.64648 13.896 9.64648C15.1379 9.64648 16.1917 9.90853 17.0576 10.4326C18.0374 11.0592 18.5273 11.9821 18.5273 13.2012ZM40.4194 20.772C40.5106 20.8631 40.653 20.9087 40.8467 20.9087C41.0404 20.9087 41.2056 20.8688 41.3423 20.7891C41.0461 19.0573 40.8467 18.0319 40.7441 17.7129C40.6188 17.3825 40.4308 17.2173 40.1802 17.2173C40.0662 17.2173 39.9295 17.2515 39.77 17.3198L40.4194 20.772ZM37.0356 25.8989C36.9217 26.0584 36.8647 26.2065 36.8647 26.3433C36.8647 26.6737 37.1724 26.9528 37.7876 27.1807C38.4142 27.3971 39.1719 27.5339 40.0605 27.5908C40.2087 29.2314 40.3682 30.1657 40.5391 30.3936C40.3226 30.8151 39.7244 31.2424 38.7446 31.6753C37.7648 32.0968 36.6597 32.3076 35.4292 32.3076C33.8 32.3076 32.4043 31.9601 31.2422 31.2651C30.0801 30.5588 29.499 29.653 29.499 28.5479C29.499 28.2516 29.5275 27.9896 29.5845 27.7617L33.2246 11.4922C34.1361 10.9111 35.2241 10.4554 36.4888 10.125C37.7534 9.7946 39.0693 9.62939 40.4365 9.62939C42.3962 9.62939 44.071 9.9598 45.4609 10.6206C47.0446 11.3726 48.0073 12.4606 48.3491 13.8848L52.2456 30.0005C51.0607 31.5386 49.1296 32.3076 46.4521 32.3076C45.1533 32.3076 44.0539 32.0741 43.1538 31.6069C42.2537 31.1398 41.7297 30.4733 41.5815 29.6074L41.2056 27.5225C41.8892 27.5111 42.55 27.38 43.188 27.1294C43.826 26.8787 44.145 26.6167 44.145 26.3433C44.145 26.161 44.071 26.0129 43.9229 25.8989C43.4899 26.2065 42.9601 26.4401 42.3335 26.5996C41.7069 26.7591 41.1258 26.8389 40.5903 26.8389C39.0522 26.8389 37.8674 26.5256 37.0356 25.8989ZM52.7754 28.8384V11.7144C52.7754 11.1219 53.2482 10.632 54.1938 10.2446C55.1509 9.84587 56.2731 9.64648 57.5605 9.64648C58.2897 9.64648 58.9733 9.73763 59.6113 9.91992C60.2607 10.0908 60.7563 10.313 61.0981 10.5864C61.5653 11.1789 61.9925 11.7827 62.3799 12.3979C62.7673 13.0132 63.6388 14.4487 64.9946 16.7046C65.12 16.7046 65.2339 16.6647 65.3364 16.585C65.439 16.5052 65.4902 16.3856 65.4902 16.2261C65.4902 16.0552 65.3478 15.7305 65.063 15.252L63.2173 12.0732V11.1333C63.7983 10.6548 64.5047 10.2845 65.3364 10.0225C66.1681 9.76042 67.0283 9.62939 67.917 9.62939C69.3639 9.62939 70.5317 9.89144 71.4204 10.4155C72.4572 11.0422 72.9756 12.022 72.9756 13.355V29.5391C72.9756 30.5189 72.5085 31.231 71.5742 31.6753C70.7767 32.0741 69.7114 32.2734 68.3784 32.2734C67.6379 32.2734 66.9144 32.1937 66.208 32.0342C65.513 31.8747 64.9661 31.6696 64.5674 31.4189C63.7585 30.3822 62.9552 29.2201 62.1577 27.9326L60.4146 25.0273C60.0841 25.0729 59.9189 25.2495 59.9189 25.5571C59.9189 25.7508 60.0841 26.1211 60.4146 26.668L62.5508 30.1201V31.0259C61.2292 31.8804 59.7367 32.3076 58.0732 32.3076C56.4212 32.3076 55.1224 32.0057 54.1768 31.4019C53.2425 30.798 52.7754 29.9435 52.7754 28.8384ZM83.52 25.3179C83.5656 25.3521 83.6966 25.3691 83.9131 25.3691C84.1296 25.3691 84.2948 25.2951 84.4087 25.147C84.5226 24.9989 84.5796 24.7368 84.5796 24.3608V24.0361C84.5796 23.6146 84.5283 23.3127 84.4258 23.1304C84.3346 22.9481 84.1751 22.8569 83.9473 22.8569C83.7308 22.8569 83.5827 22.8797 83.5029 22.9253C83.5143 22.9823 83.52 23.0791 83.52 23.2158V25.3179ZM83.52 18.875C83.5656 18.9092 83.6966 18.9263 83.9131 18.9263C84.1296 18.9263 84.2948 18.8408 84.4087 18.6699C84.5226 18.499 84.5796 18.2199 84.5796 17.8325V17.73C84.5796 17.3198 84.5283 17.0293 84.4258 16.8584C84.3346 16.6761 84.1751 16.585 83.9473 16.585C83.7308 16.585 83.5827 16.6077 83.5029 16.6533C83.5143 16.7103 83.52 16.8071 83.52 16.9438V18.875ZM74.2402 12.2954C74.2402 12.0334 74.4567 11.7371 74.8896 11.4067C75.8011 10.7118 77.4076 10.1706 79.709 9.7832C80.9053 9.58952 82.2212 9.49268 83.6567 9.49268C87.0747 9.49268 89.661 10.1535 91.4155 11.4751C92.9536 12.6372 93.7227 14.1639 93.7227 16.0552C93.7227 16.7388 93.603 17.411 93.3638 18.0718C93.1245 18.7212 92.7827 19.2111 92.3384 19.5415C91.7345 19.2339 91.1535 19.0801 90.5952 19.0801C90.3332 19.0801 90.1338 19.1313 89.9971 19.2339C89.8604 19.3364 89.792 19.5244 89.792 19.7979C91.4668 19.8662 92.7713 20.4701 93.7056 21.6094C94.5373 22.6462 94.9531 23.9336 94.9531 25.4717C94.9531 27.8529 93.9562 29.5846 91.9624 30.667C90.0939 31.681 87.2798 32.188 83.52 32.188C80.8882 32.188 78.957 32.1082 77.7266 31.9487C76.4961 31.7778 75.6074 31.3848 75.0605 30.7695C74.5137 30.1543 74.2402 29.2201 74.2402 27.9668V12.2954ZM106.147 20.772C106.238 20.8631 106.381 20.9087 106.574 20.9087C106.768 20.9087 106.933 20.8688 107.07 20.7891C106.774 19.0573 106.574 18.0319 106.472 17.7129C106.346 17.3825 106.158 17.2173 105.908 17.2173C105.794 17.2173 105.657 17.2515 105.498 17.3198L106.147 20.772ZM102.763 25.8989C102.649 26.0584 102.592 26.2065 102.592 26.3433C102.592 26.6737 102.9 26.9528 103.515 27.1807C104.142 27.3971 104.899 27.5339 105.788 27.5908C105.936 29.2314 106.096 30.1657 106.267 30.3936C106.05 30.8151 105.452 31.2424 104.472 31.6753C103.492 32.0968 102.387 32.3076 101.157 32.3076C99.5275 32.3076 98.1318 31.9601 96.9697 31.2651C95.8076 30.5588 95.2266 29.653 95.2266 28.5479C95.2266 28.2516 95.255 27.9896 95.312 27.7617L98.9521 11.4922C99.8636 10.9111 100.952 10.4554 102.216 10.125C103.481 9.7946 104.797 9.62939 106.164 9.62939C108.124 9.62939 109.799 9.9598 111.188 10.6206C112.772 11.3726 113.735 12.4606 114.077 13.8848L117.973 30.0005C116.788 31.5386 114.857 32.3076 112.18 32.3076C110.881 32.3076 109.781 32.0741 108.881 31.6069C107.981 31.1398 107.457 30.4733 107.309 29.6074L106.933 27.5225C107.617 27.5111 108.278 27.38 108.916 27.1294C109.554 26.8787 109.873 26.6167 109.873 26.3433C109.873 26.161 109.799 26.0129 109.65 25.8989C109.217 26.2065 108.688 26.4401 108.061 26.5996C107.434 26.7591 106.853 26.8389 106.318 26.8389C104.78 26.8389 103.595 26.5256 102.763 25.8989ZM118.503 28.8384V11.7144C118.503 11.1219 118.976 10.632 119.921 10.2446C120.878 9.84587 122.001 9.64648 123.288 9.64648C124.017 9.64648 124.701 9.73763 125.339 9.91992C125.988 10.0908 126.484 10.313 126.826 10.5864C127.293 11.1789 127.72 11.7827 128.107 12.3979C128.495 13.0132 129.366 14.4487 130.722 16.7046C130.847 16.7046 130.961 16.6647 131.064 16.585C131.167 16.5052 131.218 16.3856 131.218 16.2261C131.218 16.0552 131.075 15.7305 130.791 15.252L128.945 12.0732V11.1333C129.526 10.6548 130.232 10.2845 131.064 10.0225C131.896 9.76042 132.756 9.62939 133.645 9.62939C135.091 9.62939 136.259 9.89144 137.148 10.4155C138.185 11.0422 138.703 12.022 138.703 13.355V29.5391C138.703 30.5189 138.236 31.231 137.302 31.6753C136.504 32.0741 135.439 32.2734 134.106 32.2734C133.365 32.2734 132.642 32.1937 131.936 32.0342C131.241 31.8747 130.694 31.6696 130.295 31.4189C129.486 30.3822 128.683 29.2201 127.885 27.9326L126.142 25.0273C125.812 25.0729 125.646 25.2495 125.646 25.5571C125.646 25.7508 125.812 26.1211 126.142 26.668L128.278 30.1201V31.0259C126.957 31.8804 125.464 32.3076 123.801 32.3076C122.149 32.3076 120.85 32.0057 119.904 31.4019C118.97 30.798 118.503 29.9435 118.503 28.8384Z"/>
</mask>
<path d="M18.5273 13.2012V13.9702C18.0716 14.9159 17.7241 15.6564 17.4849 16.1919C17.2456 16.716 17.126 17.0749 17.126 17.2686C17.126 17.599 17.314 17.7642 17.6899 17.7642L21.0566 10.3813C21.8428 9.86865 22.9137 9.6123 24.2695 9.6123C25.6367 9.6123 26.8102 9.98828 27.79 10.7402C28.861 11.5833 29.3965 12.734 29.3965 14.1924C29.3965 15.4115 28.9806 16.6134 28.1489 17.7983C27.3172 18.9718 26.2292 19.9915 24.8848 20.8574C24.2581 20.5042 23.6942 20.3276 23.1929 20.3276C22.6916 20.3276 22.4409 20.5726 22.4409 21.0625C22.965 21.165 23.4378 21.3132 23.8594 21.5068C24.2923 21.6891 24.7993 22.048 25.3804 22.5835L29.9263 26.7705C29.5959 30.4619 27.7502 32.3076 24.3892 32.3076C23.1473 32.3076 22.082 31.9886 21.1934 31.3506C20.1452 30.61 19.3249 29.4821 18.7324 27.9668L17.1431 24.002H17.0576C16.6816 24.002 16.4937 24.1615 16.4937 24.4805C16.4937 24.6855 16.6532 25.1812 16.9722 25.9673C17.2912 26.8218 17.7697 27.9611 18.4077 29.3853V30.7012C17.2114 31.7721 15.474 32.3076 13.1953 32.3076C11.9648 32.3076 10.911 32.0285 10.0337 31.4702C9.04248 30.8664 8.54688 30.0062 8.54688 28.8896V11.2529C9.72038 10.182 11.5034 9.64648 13.896 9.64648C15.1379 9.64648 16.1917 9.90853 17.0576 10.4326C18.0374 11.0592 18.5273 11.9821 18.5273 13.2012ZM40.4194 20.772C40.5106 20.8631 40.653 20.9087 40.8467 20.9087C41.0404 20.9087 41.2056 20.8688 41.3423 20.7891C41.0461 19.0573 40.8467 18.0319 40.7441 17.7129C40.6188 17.3825 40.4308 17.2173 40.1802 17.2173C40.0662 17.2173 39.9295 17.2515 39.77 17.3198L40.4194 20.772ZM37.0356 25.8989C36.9217 26.0584 36.8647 26.2065 36.8647 26.3433C36.8647 26.6737 37.1724 26.9528 37.7876 27.1807C38.4142 27.3971 39.1719 27.5339 40.0605 27.5908C40.2087 29.2314 40.3682 30.1657 40.5391 30.3936C40.3226 30.8151 39.7244 31.2424 38.7446 31.6753C37.7648 32.0968 36.6597 32.3076 35.4292 32.3076C33.8 32.3076 32.4043 31.9601 31.2422 31.2651C30.0801 30.5588 29.499 29.653 29.499 28.5479C29.499 28.2516 29.5275 27.9896 29.5845 27.7617L33.2246 11.4922C34.1361 10.9111 35.2241 10.4554 36.4888 10.125C37.7534 9.7946 39.0693 9.62939 40.4365 9.62939C42.3962 9.62939 44.071 9.9598 45.4609 10.6206C47.0446 11.3726 48.0073 12.4606 48.3491 13.8848L52.2456 30.0005C51.0607 31.5386 49.1296 32.3076 46.4521 32.3076C45.1533 32.3076 44.0539 32.0741 43.1538 31.6069C42.2537 31.1398 41.7297 30.4733 41.5815 29.6074L41.2056 27.5225C41.8892 27.5111 42.55 27.38 43.188 27.1294C43.826 26.8787 44.145 26.6167 44.145 26.3433C44.145 26.161 44.071 26.0129 43.9229 25.8989C43.4899 26.2065 42.9601 26.4401 42.3335 26.5996C41.7069 26.7591 41.1258 26.8389 40.5903 26.8389C39.0522 26.8389 37.8674 26.5256 37.0356 25.8989ZM52.7754 28.8384V11.7144C52.7754 11.1219 53.2482 10.632 54.1938 10.2446C55.1509 9.84587 56.2731 9.64648 57.5605 9.64648C58.2897 9.64648 58.9733 9.73763 59.6113 9.91992C60.2607 10.0908 60.7563 10.313 61.0981 10.5864C61.5653 11.1789 61.9925 11.7827 62.3799 12.3979C62.7673 13.0132 63.6388 14.4487 64.9946 16.7046C65.12 16.7046 65.2339 16.6647 65.3364 16.585C65.439 16.5052 65.4902 16.3856 65.4902 16.2261C65.4902 16.0552 65.3478 15.7305 65.063 15.252L63.2173 12.0732V11.1333C63.7983 10.6548 64.5047 10.2845 65.3364 10.0225C66.1681 9.76042 67.0283 9.62939 67.917 9.62939C69.3639 9.62939 70.5317 9.89144 71.4204 10.4155C72.4572 11.0422 72.9756 12.022 72.9756 13.355V29.5391C72.9756 30.5189 72.5085 31.231 71.5742 31.6753C70.7767 32.0741 69.7114 32.2734 68.3784 32.2734C67.6379 32.2734 66.9144 32.1937 66.208 32.0342C65.513 31.8747 64.9661 31.6696 64.5674 31.4189C63.7585 30.3822 62.9552 29.2201 62.1577 27.9326L60.4146 25.0273C60.0841 25.0729 59.9189 25.2495 59.9189 25.5571C59.9189 25.7508 60.0841 26.1211 60.4146 26.668L62.5508 30.1201V31.0259C61.2292 31.8804 59.7367 32.3076 58.0732 32.3076C56.4212 32.3076 55.1224 32.0057 54.1768 31.4019C53.2425 30.798 52.7754 29.9435 52.7754 28.8384ZM83.52 25.3179C83.5656 25.3521 83.6966 25.3691 83.9131 25.3691C84.1296 25.3691 84.2948 25.2951 84.4087 25.147C84.5226 24.9989 84.5796 24.7368 84.5796 24.3608V24.0361C84.5796 23.6146 84.5283 23.3127 84.4258 23.1304C84.3346 22.9481 84.1751 22.8569 83.9473 22.8569C83.7308 22.8569 83.5827 22.8797 83.5029 22.9253C83.5143 22.9823 83.52 23.0791 83.52 23.2158V25.3179ZM83.52 18.875C83.5656 18.9092 83.6966 18.9263 83.9131 18.9263C84.1296 18.9263 84.2948 18.8408 84.4087 18.6699C84.5226 18.499 84.5796 18.2199 84.5796 17.8325V17.73C84.5796 17.3198 84.5283 17.0293 84.4258 16.8584C84.3346 16.6761 84.1751 16.585 83.9473 16.585C83.7308 16.585 83.5827 16.6077 83.5029 16.6533C83.5143 16.7103 83.52 16.8071 83.52 16.9438V18.875ZM74.2402 12.2954C74.2402 12.0334 74.4567 11.7371 74.8896 11.4067C75.8011 10.7118 77.4076 10.1706 79.709 9.7832C80.9053 9.58952 82.2212 9.49268 83.6567 9.49268C87.0747 9.49268 89.661 10.1535 91.4155 11.4751C92.9536 12.6372 93.7227 14.1639 93.7227 16.0552C93.7227 16.7388 93.603 17.411 93.3638 18.0718C93.1245 18.7212 92.7827 19.2111 92.3384 19.5415C91.7345 19.2339 91.1535 19.0801 90.5952 19.0801C90.3332 19.0801 90.1338 19.1313 89.9971 19.2339C89.8604 19.3364 89.792 19.5244 89.792 19.7979C91.4668 19.8662 92.7713 20.4701 93.7056 21.6094C94.5373 22.6462 94.9531 23.9336 94.9531 25.4717C94.9531 27.8529 93.9562 29.5846 91.9624 30.667C90.0939 31.681 87.2798 32.188 83.52 32.188C80.8882 32.188 78.957 32.1082 77.7266 31.9487C76.4961 31.7778 75.6074 31.3848 75.0605 30.7695C74.5137 30.1543 74.2402 29.2201 74.2402 27.9668V12.2954ZM106.147 20.772C106.238 20.8631 106.381 20.9087 106.574 20.9087C106.768 20.9087 106.933 20.8688 107.07 20.7891C106.774 19.0573 106.574 18.0319 106.472 17.7129C106.346 17.3825 106.158 17.2173 105.908 17.2173C105.794 17.2173 105.657 17.2515 105.498 17.3198L106.147 20.772ZM102.763 25.8989C102.649 26.0584 102.592 26.2065 102.592 26.3433C102.592 26.6737 102.9 26.9528 103.515 27.1807C104.142 27.3971 104.899 27.5339 105.788 27.5908C105.936 29.2314 106.096 30.1657 106.267 30.3936C106.05 30.8151 105.452 31.2424 104.472 31.6753C103.492 32.0968 102.387 32.3076 101.157 32.3076C99.5275 32.3076 98.1318 31.9601 96.9697 31.2651C95.8076 30.5588 95.2266 29.653 95.2266 28.5479C95.2266 28.2516 95.255 27.9896 95.312 27.7617L98.9521 11.4922C99.8636 10.9111 100.952 10.4554 102.216 10.125C103.481 9.7946 104.797 9.62939 106.164 9.62939C108.124 9.62939 109.799 9.9598 111.188 10.6206C112.772 11.3726 113.735 12.4606 114.077 13.8848L117.973 30.0005C116.788 31.5386 114.857 32.3076 112.18 32.3076C110.881 32.3076 109.781 32.0741 108.881 31.6069C107.981 31.1398 107.457 30.4733 107.309 29.6074L106.933 27.5225C107.617 27.5111 108.278 27.38 108.916 27.1294C109.554 26.8787 109.873 26.6167 109.873 26.3433C109.873 26.161 109.799 26.0129 109.65 25.8989C109.217 26.2065 108.688 26.4401 108.061 26.5996C107.434 26.7591 106.853 26.8389 106.318 26.8389C104.78 26.8389 103.595 26.5256 102.763 25.8989ZM118.503 28.8384V11.7144C118.503 11.1219 118.976 10.632 119.921 10.2446C120.878 9.84587 122.001 9.64648 123.288 9.64648C124.017 9.64648 124.701 9.73763 125.339 9.91992C125.988 10.0908 126.484 10.313 126.826 10.5864C127.293 11.1789 127.72 11.7827 128.107 12.3979C128.495 13.0132 129.366 14.4487 130.722 16.7046C130.847 16.7046 130.961 16.6647 131.064 16.585C131.167 16.5052 131.218 16.3856 131.218 16.2261C131.218 16.0552 131.075 15.7305 130.791 15.252L128.945 12.0732V11.1333C129.526 10.6548 130.232 10.2845 131.064 10.0225C131.896 9.76042 132.756 9.62939 133.645 9.62939C135.091 9.62939 136.259 9.89144 137.148 10.4155C138.185 11.0422 138.703 12.022 138.703 13.355V29.5391C138.703 30.5189 138.236 31.231 137.302 31.6753C136.504 32.0741 135.439 32.2734 134.106 32.2734C133.365 32.2734 132.642 32.1937 131.936 32.0342C131.241 31.8747 130.694 31.6696 130.295 31.4189C129.486 30.3822 128.683 29.2201 127.885 27.9326L126.142 25.0273C125.812 25.0729 125.646 25.2495 125.646 25.5571C125.646 25.7508 125.812 26.1211 126.142 26.668L128.278 30.1201V31.0259C126.957 31.8804 125.464 32.3076 123.801 32.3076C122.149 32.3076 120.85 32.0057 119.904 31.4019C118.97 30.798 118.503 29.9435 118.503 28.8384Z" fill="url(#paint0_linear_535_9)"/>
<path d="M18.5273 13.9702L19.4282 14.4044L19.5273 14.1986V13.9702H18.5273ZM17.4849 16.1919L18.3946 16.6072L18.3979 16.5998L17.4849 16.1919ZM17.6899 17.7642V18.7642H18.333L18.5998 18.1791L17.6899 17.7642ZM21.0566 10.3813L20.5104 9.54374L20.2672 9.70231L20.1468 9.96643L21.0566 10.3813ZM27.79 10.7402L28.4086 9.95444L28.3989 9.94693L27.79 10.7402ZM28.1489 17.7983L28.9648 18.3766L28.9674 18.3729L28.1489 17.7983ZM24.8848 20.8574L24.3938 21.7286L24.9192 22.0247L25.4262 21.6981L24.8848 20.8574ZM22.4409 21.0625H21.4409V21.8858L22.2489 22.0439L22.4409 21.0625ZM23.8594 21.5068L23.4419 22.4155L23.4565 22.4222L23.4713 22.4285L23.8594 21.5068ZM25.3804 22.5835L24.7027 23.3189L24.7029 23.319L25.3804 22.5835ZM29.9263 26.7705L30.9223 26.8597L30.9662 26.3688L30.6037 26.035L29.9263 26.7705ZM21.1934 31.3506L21.7766 30.5382L21.7704 30.5339L21.1934 31.3506ZM18.7324 27.9668L19.6638 27.6026L19.6606 27.5947L18.7324 27.9668ZM17.1431 24.002L18.0713 23.6299L17.8196 23.002H17.1431V24.002ZM16.9722 25.9673L17.909 25.6175L17.9041 25.6043L17.8988 25.5913L16.9722 25.9673ZM18.4077 29.3853H19.4077V29.1715L19.3203 28.9764L18.4077 29.3853ZM18.4077 30.7012L19.0747 31.4462L19.4077 31.1481V30.7012H18.4077ZM10.0337 31.4702L10.5706 30.6266L10.5623 30.6213L10.5539 30.6162L10.0337 31.4702ZM8.54688 11.2529L7.87278 10.5143L7.54688 10.8117V11.2529H8.54688ZM17.0576 10.4326L17.5964 9.59017L17.586 9.58351L17.5754 9.57712L17.0576 10.4326ZM17.5273 13.2012V13.9702H19.5273V13.2012H17.5273ZM17.6265 13.5361C17.1693 14.4848 16.817 15.2354 16.5719 15.784L18.3979 16.5998C18.6313 16.0774 18.9739 15.3469 19.4282 14.4044L17.6265 13.5361ZM16.5752 15.7766C16.4476 16.0561 16.3422 16.3122 16.267 16.5379C16.1992 16.7415 16.126 17.005 16.126 17.2686H18.126C18.126 17.3156 18.1197 17.3321 18.1258 17.3039C18.131 17.2797 18.1424 17.2364 18.1644 17.1704C18.2088 17.0371 18.2829 16.8517 18.3946 16.6072L16.5752 15.7766ZM16.126 17.2686C16.126 17.6239 16.233 18.0629 16.6069 18.3914C16.956 18.6983 17.3773 18.7642 17.6899 18.7642V16.7642C17.6266 16.7642 17.7659 16.7475 17.9271 16.8891C18.1129 17.0524 18.126 17.2436 18.126 17.2686H16.126ZM18.5998 18.1791L21.9665 10.7963L20.1468 9.96643L16.7801 17.3492L18.5998 18.1791ZM21.6029 11.219C22.1694 10.8495 23.0258 10.6123 24.2695 10.6123V8.6123C22.8017 8.6123 21.5162 8.88778 20.5104 9.54374L21.6029 11.219ZM24.2695 10.6123C25.4414 10.6123 26.3948 10.93 27.1812 11.5335L28.3989 9.94693C27.2256 9.04654 25.832 8.6123 24.2695 8.6123V10.6123ZM27.1715 11.526C27.9828 12.1647 28.3965 13.0159 28.3965 14.1924H30.3965C30.3965 12.4522 29.7392 11.002 28.4086 9.9545L27.1715 11.526ZM28.3965 14.1924C28.3965 15.1696 28.0667 16.1749 27.3304 17.2238L28.9674 18.3729C29.8946 17.052 30.3965 15.6533 30.3965 14.1924H28.3965ZM27.3331 17.2201C26.583 18.2784 25.5923 19.2123 24.3433 20.0167L25.4262 21.6981C26.866 20.7708 28.0514 19.6653 28.9648 18.3766L27.3331 17.2201ZM25.3758 19.9863C24.6605 19.5831 23.925 19.3276 23.1929 19.3276V21.3276C23.4634 21.3276 23.8558 21.4253 24.3938 21.7286L25.3758 19.9863ZM23.1929 19.3276C22.7938 19.3276 22.3097 19.4251 21.93 19.7962C21.546 20.1714 21.4409 20.6575 21.4409 21.0625H23.4409C23.4409 20.9776 23.4612 21.0962 23.3278 21.2265C23.1988 21.3527 23.0907 21.3276 23.1929 21.3276V19.3276ZM22.2489 22.0439C22.7066 22.1335 23.1022 22.2594 23.4419 22.4155L24.2769 20.5982C23.7734 20.3669 23.2234 20.1966 22.6329 20.0811L22.2489 22.0439ZM23.4713 22.4285C23.7493 22.5455 24.1569 22.8158 24.7027 23.3189L26.0581 21.8481C25.4418 21.2802 24.8353 20.8327 24.2474 20.5852L23.4713 22.4285ZM24.7029 23.319L29.2488 27.5061L30.6037 26.035L26.0578 21.848L24.7029 23.319ZM28.9303 26.6814C28.7773 28.39 28.2866 29.5167 27.5871 30.2162C26.9015 30.9018 25.8842 31.3076 24.3892 31.3076V33.3076C26.2551 33.3076 27.8412 32.7906 29.0013 31.6304C30.1475 30.4843 30.7448 28.8424 30.9223 26.8597L28.9303 26.6814ZM24.3892 31.3076C23.3271 31.3076 22.4728 31.0381 21.7766 30.5383L20.6102 32.1629C21.6912 32.9391 22.9675 33.3076 24.3892 33.3076V31.3076ZM21.7704 30.5339C20.9199 29.933 20.204 28.9843 19.6638 27.6027L17.8011 28.3309C18.4458 29.9799 19.3704 31.2871 20.6163 32.1673L21.7704 30.5339ZM19.6606 27.5947L18.0713 23.6299L16.2149 24.374L17.8042 28.3389L19.6606 27.5947ZM17.1431 23.002H17.0576V25.002H17.1431V23.002ZM17.0576 23.002C16.752 23.002 16.3362 23.0633 15.9877 23.3591C15.6076 23.6815 15.4937 24.1199 15.4937 24.4805H17.4937C17.4937 24.4967 17.4915 24.5558 17.4597 24.6368C17.4254 24.7238 17.366 24.8125 17.2816 24.8841C17.121 25.0203 16.9873 25.002 17.0576 25.002V23.002ZM15.4937 24.4805C15.4937 24.7589 15.584 25.072 15.6614 25.3123C15.7519 25.5936 15.8817 25.9396 16.0456 26.3433L17.8988 25.5913C17.7436 25.2088 17.6342 24.914 17.5652 24.6996C17.5307 24.5924 17.5099 24.5164 17.4986 24.4668C17.4849 24.4064 17.4937 24.4215 17.4937 24.4805H15.4937ZM16.0353 26.317C16.3652 27.2006 16.8536 28.3621 17.4951 29.7941L19.3203 28.9764C18.6858 27.5602 18.2172 26.443 17.909 25.6175L16.0353 26.317ZM17.4077 29.3853V30.7012H19.4077V29.3853H17.4077ZM17.7407 29.9561C16.792 30.8054 15.3303 31.3076 13.1953 31.3076V33.3076C15.6176 33.3076 17.6308 32.7388 19.0747 31.4462L17.7407 29.9561ZM13.1953 31.3076C12.1197 31.3076 11.26 31.0653 10.5706 30.6266L9.49682 32.3139C10.562 32.9917 11.81 33.3076 13.1953 33.3076V31.3076ZM10.5539 30.6162C9.84632 30.1851 9.54688 29.6408 9.54688 28.8896H7.54688C7.54688 30.3715 8.23864 31.5476 9.51343 32.3242L10.5539 30.6162ZM9.54688 28.8896V11.2529H7.54688V28.8896H9.54688ZM9.22097 11.9916C10.1361 11.1564 11.63 10.6465 13.896 10.6465V8.64648C11.3768 8.64648 9.30465 9.20753 7.87278 10.5143L9.22097 11.9916ZM13.896 10.6465C14.9967 10.6465 15.8621 10.8779 16.5398 11.2881L17.5754 9.57712C16.5214 8.93916 15.2791 8.64648 13.896 8.64648V10.6465ZM16.5188 11.2751C17.195 11.7075 17.5273 12.3034 17.5273 13.2012H19.5273C19.5273 11.6608 18.8799 10.411 17.5964 9.59017L16.5188 11.2751ZM40.4194 20.772L39.4367 20.9568L39.4938 21.2606L39.7123 21.4791L40.4194 20.772ZM41.3423 20.7891L41.8462 21.6528L42.4448 21.3036L42.328 20.6205L41.3423 20.7891ZM40.7441 17.7129L41.6962 17.4069L41.6883 17.3823L41.6791 17.3582L40.7441 17.7129ZM39.77 17.3198L39.3761 16.4007L38.639 16.7166L38.7873 17.5047L39.77 17.3198ZM37.0356 25.8989L37.6374 25.1002L36.8181 24.483L36.2219 25.3177L37.0356 25.8989ZM37.7876 27.1807L37.4403 28.1184L37.4506 28.1222L37.4611 28.1259L37.7876 27.1807ZM40.0605 27.5908L41.0565 27.5009L40.9795 26.6477L40.1245 26.5929L40.0605 27.5908ZM40.5391 30.3936L41.4286 30.8504L41.7144 30.2939L41.3391 29.7936L40.5391 30.3936ZM38.7446 31.6753L39.1399 32.5939L39.1488 32.59L38.7446 31.6753ZM31.2422 31.2651L30.7228 32.1197L30.7289 32.1234L31.2422 31.2651ZM29.5845 27.7617L30.5546 28.0043L30.5576 27.9922L30.5603 27.9801L29.5845 27.7617ZM33.2246 11.4922L32.6871 10.649L32.3389 10.8709L32.2487 11.2738L33.2246 11.4922ZM45.4609 10.6206L45.0316 11.5237L45.032 11.5239L45.4609 10.6206ZM48.3491 13.8848L47.3767 14.1181L47.3771 14.1198L48.3491 13.8848ZM52.2456 30.0005L53.0378 30.6108L53.3302 30.2312L53.2176 29.7655L52.2456 30.0005ZM41.5815 29.6074L42.5673 29.4388L42.5657 29.43L41.5815 29.6074ZM41.2056 27.5225L41.1889 26.5226L40.0127 26.5422L40.2214 27.6999L41.2056 27.5225ZM43.9229 25.8989L44.5326 25.1063L43.9464 24.6554L43.3436 25.0837L43.9229 25.8989ZM39.7123 21.4791C40.0671 21.8339 40.5194 21.9087 40.8467 21.9087V19.9087C40.7866 19.9087 40.954 19.8924 41.1265 20.0649L39.7123 21.4791ZM40.8467 21.9087C41.178 21.9087 41.5257 21.8398 41.8462 21.6528L40.8384 19.9253C40.8488 19.9192 40.8582 19.9148 40.866 19.9117C40.8738 19.9086 40.8791 19.9072 40.8812 19.9067C40.8852 19.9057 40.8752 19.9087 40.8467 19.9087V21.9087ZM42.328 20.6205C42.0383 18.9271 41.8262 17.8113 41.6962 17.4069L39.7921 18.0189C39.8672 18.2525 40.0538 19.1875 40.3566 20.9577L42.328 20.6205ZM41.6791 17.3582C41.581 17.0996 41.4259 16.8156 41.1693 16.59C40.8925 16.3468 40.548 16.2173 40.1802 16.2173V18.2173C40.1309 18.2173 40.0694 18.2087 40.004 18.1841C39.9385 18.1594 39.8864 18.1252 39.849 18.0924C39.7804 18.032 39.7819 17.9958 39.8091 18.0675L41.6791 17.3582ZM40.1802 16.2173C39.8789 16.2173 39.6014 16.3041 39.3761 16.4007L40.1639 18.239C40.1842 18.2303 40.2003 18.2242 40.2125 18.2199C40.2247 18.2157 40.232 18.2137 40.2347 18.2131C40.2374 18.2124 40.2342 18.2133 40.2256 18.2145C40.2169 18.2157 40.2015 18.2173 40.1802 18.2173V16.2173ZM38.7873 17.5047L39.4367 20.9568L41.4022 20.5871L40.7528 17.1349L38.7873 17.5047ZM36.2219 25.3177C36.0374 25.576 35.8647 25.9254 35.8647 26.3433H37.8647C37.8647 26.4157 37.8494 26.4662 37.8408 26.4886C37.8329 26.5093 37.8305 26.5066 37.8494 26.4802L36.2219 25.3177ZM35.8647 26.3433C35.8647 26.8598 36.1183 27.2641 36.4235 27.541C36.7107 27.8016 37.0743 27.9829 37.4403 28.1184L38.1349 26.2429C38.0166 26.1991 37.9286 26.1584 37.8654 26.1237C37.8013 26.0885 37.7734 26.0653 37.7674 26.0599C37.7622 26.0551 37.7879 26.0769 37.8152 26.1309C37.8448 26.1896 37.8647 26.2641 37.8647 26.3433H35.8647ZM37.4611 28.1259C38.1958 28.3797 39.0469 28.5279 39.9966 28.5888L40.1245 26.5929C39.2968 26.5398 38.6327 26.4146 38.1141 26.2355L37.4611 28.1259ZM39.0646 27.6807C39.1396 28.5112 39.2193 29.185 39.3055 29.6903C39.3485 29.9418 39.3961 30.1702 39.4511 30.3637C39.4969 30.5246 39.5785 30.7795 39.7391 30.9936L41.3391 29.7936C41.4142 29.8937 41.4117 29.9463 41.3749 29.8167C41.3473 29.7197 41.3138 29.5693 41.277 29.3537C41.2038 28.9247 41.1296 28.311 41.0565 27.5009L39.0646 27.6807ZM39.6495 29.9368C39.6495 29.9367 39.6493 29.9372 39.6487 29.9381C39.6482 29.9391 39.6474 29.9404 39.6462 29.9423C39.6439 29.946 39.6404 29.9514 39.6351 29.9584C39.6246 29.9727 39.6082 29.9928 39.5837 30.0184C39.5338 30.0703 39.4579 30.1371 39.3469 30.2164C39.1221 30.377 38.7936 30.5604 38.3405 30.7606L39.1488 32.59C39.6755 32.3573 40.136 32.1106 40.5093 31.8439C40.8734 31.5838 41.2183 31.26 41.4286 30.8504L39.6495 29.9368ZM38.3494 30.7567C37.5122 31.1169 36.5445 31.3076 35.4292 31.3076V33.3076C36.7749 33.3076 38.0175 33.0768 39.1398 32.5939L38.3494 30.7567ZM35.4292 31.3076C33.9439 31.3076 32.7336 30.9919 31.7554 30.4069L30.7289 32.1234C32.075 32.9284 33.6561 33.3076 35.4292 33.3076V31.3076ZM31.7616 30.4106C30.8181 29.8371 30.499 29.2196 30.499 28.5479H28.499C28.499 30.0864 29.342 31.2804 30.7228 32.1197L31.7616 30.4106ZM30.499 28.5479C30.499 28.3132 30.5218 28.1353 30.5546 28.0043L28.6143 27.5192C28.5332 27.8438 28.499 28.1901 28.499 28.5479H30.499ZM30.5603 27.9801L34.2005 11.7105L32.2487 11.2738L28.6086 27.5434L30.5603 27.9801ZM33.7622 12.3354C34.5696 11.8207 35.5573 11.4019 36.7415 11.0925L36.236 9.15748C34.8909 9.5089 33.7025 10.0016 32.6871 10.649L33.7622 12.3354ZM36.7415 11.0925C37.92 10.7847 39.1507 10.6294 40.4365 10.6294V8.62939C38.988 8.62939 37.5869 8.80454 36.236 9.15748L36.7415 11.0925ZM40.4365 10.6294C42.2869 10.6294 43.8072 10.9417 45.0316 11.5237L45.8903 9.71747C44.3347 8.97793 42.5054 8.62939 40.4365 8.62939V10.6294ZM45.032 11.5239C46.4023 12.1746 47.1196 13.0468 47.3767 14.1181L49.3215 13.6514C48.895 11.8745 47.6869 10.5705 45.8899 9.71727L45.032 11.5239ZM47.3771 14.1198L51.2736 30.2355L53.2176 29.7655L49.3211 13.6498L47.3771 14.1198ZM51.4534 29.3902C50.5231 30.5979 48.9447 31.3076 46.4521 31.3076V33.3076C49.3144 33.3076 51.5984 32.4793 53.0378 30.6108L51.4534 29.3902ZM46.4521 31.3076C45.2699 31.3076 44.3379 31.0948 43.6145 30.7193L42.6932 32.4945C43.7699 33.0533 45.0367 33.3076 46.4521 33.3076V31.3076ZM43.6145 30.7193C42.9436 30.3712 42.6539 29.9457 42.5672 29.4388L40.5959 29.776C40.8054 31.0009 41.5639 31.9084 42.6932 32.4945L43.6145 30.7193ZM42.5657 29.43L42.1897 27.345L40.2214 27.6999L40.5974 29.7849L42.5657 29.43ZM41.2222 28.5223C42.0257 28.5089 42.8047 28.3544 43.5536 28.0601L42.8223 26.1986C42.2953 26.4057 41.7526 26.5132 41.1889 26.5226L41.2222 28.5223ZM43.5536 28.0601C43.9147 27.9183 44.2643 27.7445 44.5405 27.5176C44.8113 27.2952 45.145 26.9059 45.145 26.3433H43.145C43.145 26.2074 43.1869 26.1002 43.2261 26.0344C43.2611 25.9757 43.2888 25.9576 43.271 25.9721C43.2547 25.9856 43.2134 26.0155 43.1345 26.0578C43.0569 26.0993 42.9544 26.1468 42.8223 26.1986L43.5536 28.0601ZM45.145 26.3433C45.145 25.8415 44.9195 25.404 44.5326 25.1063L43.3131 26.6915C43.2829 26.6683 43.2338 26.6202 43.1951 26.5427C43.1559 26.4643 43.145 26.3915 43.145 26.3433H45.145ZM43.3436 25.0837C43.0303 25.3064 42.6193 25.495 42.0868 25.6305L42.5802 27.5687C43.301 27.3852 43.9495 27.1067 44.5021 26.7141L43.3436 25.0837ZM42.0868 25.6305C41.5248 25.7736 41.0275 25.8389 40.5903 25.8389V27.8389C41.2241 27.8389 41.889 27.7446 42.5802 27.5687L42.0868 25.6305ZM40.5903 25.8389C39.1703 25.8389 38.2304 25.5471 37.6374 25.1002L36.4339 26.6976C37.5043 27.5041 38.9342 27.8389 40.5903 27.8389V25.8389ZM54.1938 10.2446L54.5729 11.17L54.5785 11.1677L54.1938 10.2446ZM59.6113 9.91992L59.3366 10.8814L59.3467 10.8843L59.3568 10.887L59.6113 9.91992ZM61.0981 10.5864L61.8834 9.96727L61.8124 9.87721L61.7228 9.80556L61.0981 10.5864ZM64.9946 16.7046L64.1375 17.2197L64.4289 17.7046H64.9946V16.7046ZM65.063 15.252L64.1981 15.7541L64.2037 15.7634L65.063 15.252ZM63.2173 12.0732H62.2173V12.3425L62.3525 12.5754L63.2173 12.0732ZM63.2173 11.1333L62.5816 10.3614L62.2173 10.6614V11.1333H63.2173ZM71.4204 10.4155L71.9377 9.55965L71.9284 9.55416L71.4204 10.4155ZM71.5742 31.6753L71.1447 30.7722L71.1358 30.7765L71.127 30.7809L71.5742 31.6753ZM66.208 32.0342L65.9843 33.0088L65.9877 33.0096L66.208 32.0342ZM64.5674 31.4189L63.779 32.0341L63.8868 32.1723L64.0352 32.2656L64.5674 31.4189ZM62.1577 27.9326L61.3002 28.4471L61.3039 28.4532L61.3076 28.4592L62.1577 27.9326ZM60.4146 25.0273L61.272 24.5128L60.9322 23.9465L60.2779 24.0367L60.4146 25.0273ZM60.4146 26.668L59.5586 27.1851L59.5642 27.1942L60.4146 26.668ZM62.5508 30.1201H63.5508V29.8357L63.4011 29.5939L62.5508 30.1201ZM62.5508 31.0259L63.0937 31.8656L63.5508 31.5701V31.0259H62.5508ZM54.1768 31.4019L53.6339 32.2417L53.6386 32.2447L54.1768 31.4019ZM53.7754 28.8384V11.7144H51.7754V28.8384H53.7754ZM53.7754 11.7144C53.7754 11.7036 53.7767 11.6982 53.7804 11.6896C53.7852 11.6785 53.8015 11.6468 53.8496 11.597C53.9539 11.4889 54.17 11.335 54.5729 11.17L53.8148 9.31926C52.7891 9.73941 51.7754 10.4711 51.7754 11.7144H53.7754ZM54.5785 11.1677C55.388 10.8304 56.3742 10.6465 57.5605 10.6465V8.64648C56.172 8.64648 54.9137 8.86134 53.8092 9.32155L54.5785 11.1677ZM57.5605 10.6465C58.2059 10.6465 58.7963 10.7271 59.3366 10.8814L59.886 8.9584C59.1503 8.7482 58.3735 8.64648 57.5605 8.64648V10.6465ZM59.3568 10.887C59.9362 11.0395 60.2832 11.2151 60.4734 11.3673L61.7228 9.80556C61.2295 9.41091 60.5853 9.14219 59.8658 8.95285L59.3568 10.887ZM60.3129 11.2056C60.759 11.7714 61.1658 12.3465 61.5336 12.9308L63.2261 11.8651C62.8193 11.219 62.3715 10.5864 61.8834 9.96727L60.3129 11.2056ZM61.5336 12.9308C61.9143 13.5354 62.7801 14.9612 64.1375 17.2197L65.8517 16.1895C64.4976 13.9363 63.6202 12.491 63.2261 11.8651L61.5336 12.9308ZM64.9946 17.7046C65.3509 17.7046 65.6792 17.5852 65.9504 17.3743L64.7225 15.7956C64.7502 15.774 64.7909 15.7493 64.8437 15.7308C64.897 15.7122 64.9492 15.7046 64.9946 15.7046V17.7046ZM65.9504 17.3743C66.352 17.0619 66.4902 16.6162 66.4902 16.2261H64.4902C64.4902 16.2001 64.4943 16.1309 64.5326 16.0415C64.5735 15.9461 64.6399 15.8598 64.7225 15.7956L65.9504 17.3743ZM66.4902 16.2261C66.4902 15.9202 66.379 15.6346 66.2992 15.4527C66.2049 15.2377 66.0753 14.9976 65.9223 14.7405L64.2037 15.7634C64.3355 15.9848 64.4195 16.1463 64.4676 16.256C64.4915 16.3104 64.5005 16.3386 64.5024 16.3452C64.5061 16.3581 64.4902 16.3113 64.4902 16.2261H66.4902ZM65.9278 14.7498L64.0821 11.5711L62.3525 12.5754L64.1982 15.7541L65.9278 14.7498ZM64.2173 12.0732V11.1333H62.2173V12.0732H64.2173ZM63.853 11.9052C64.3206 11.5201 64.9084 11.2058 65.6369 10.9762L65.0359 9.06868C64.101 9.36324 63.2761 9.78944 62.5816 10.3614L63.853 11.9052ZM65.6369 10.9762C66.3695 10.7454 67.1283 10.6294 67.917 10.6294V8.62939C66.9284 8.62939 65.9667 8.77542 65.0359 9.06868L65.6369 10.9762ZM67.917 10.6294C69.2537 10.6294 70.2275 10.8729 70.9124 11.2769L71.9284 9.55416C70.836 8.90993 69.4742 8.62939 67.917 8.62939V10.6294ZM70.9032 11.2714C71.6058 11.6961 71.9756 12.3299 71.9756 13.355H73.9756C73.9756 11.7141 73.3085 10.3882 71.9377 9.5597L70.9032 11.2714ZM71.9756 13.355V29.5391H73.9756V13.355H71.9756ZM71.9756 29.5391C71.9756 29.8642 71.9004 30.0899 71.7891 30.2595C71.6757 30.4324 71.482 30.6118 71.1447 30.7722L72.0037 32.5784C72.6007 32.2944 73.1077 31.8957 73.4614 31.3565C73.8173 30.814 73.9756 30.1938 73.9756 29.5391H71.9756ZM71.127 30.7809C70.52 31.0844 69.6266 31.2734 68.3784 31.2734V33.2734C69.7962 33.2734 71.0334 33.0637 72.0214 32.5697L71.127 30.7809ZM68.3784 31.2734C67.7103 31.2734 67.0607 31.2016 66.4283 31.0587L65.9877 33.0096C66.768 33.1858 67.5654 33.2734 68.3784 33.2734V31.2734ZM66.4317 31.0595C65.7957 30.9136 65.3678 30.7409 65.0996 30.5723L64.0352 32.2656C64.5645 32.5983 65.2303 32.8358 65.9843 33.0088L66.4317 31.0595ZM65.3558 30.8038C64.572 29.7993 63.7892 28.6673 63.0078 27.406L61.3076 28.4592C62.1213 29.7728 62.9449 30.9651 63.779 32.0341L65.3558 30.8038ZM63.0152 27.4181L61.272 24.5128L59.5571 25.5418L61.3002 28.4471L63.0152 27.4181ZM60.2779 24.0367C59.9708 24.0791 59.6021 24.2013 59.3126 24.5108C59.0132 24.8309 58.9189 25.2214 58.9189 25.5571H60.9189C60.9189 25.5853 60.9073 25.7337 60.7731 25.8771C60.6488 26.0101 60.5279 26.0212 60.5512 26.018L60.2779 24.0367ZM58.9189 25.5571C58.9189 25.8786 59.0389 26.1841 59.1296 26.3875C59.2357 26.6254 59.3827 26.8939 59.5586 27.1851L61.2705 26.1509C61.116 25.8951 61.0152 25.7051 60.9561 25.5727C60.9267 25.5069 60.9139 25.4691 60.9096 25.4544C60.9034 25.4332 60.9189 25.4748 60.9189 25.5571H58.9189ZM59.5642 27.1942L61.7004 30.6463L63.4011 29.5939L61.2649 26.1418L59.5642 27.1942ZM61.5508 30.1201V31.0259H63.5508V30.1201H61.5508ZM62.0078 30.1861C60.8574 30.9299 59.5555 31.3076 58.0732 31.3076V33.3076C59.9178 33.3076 61.6009 32.8308 63.0937 31.8656L62.0078 30.1861ZM58.0732 31.3076C56.5272 31.3076 55.4408 31.0226 54.7149 30.559L53.6386 32.2447C54.8039 32.9888 56.3153 33.3076 58.0732 33.3076V31.3076ZM54.7196 30.562C54.0681 30.1409 53.7754 29.6014 53.7754 28.8384H51.7754C51.7754 30.2856 52.4169 31.4551 53.6339 32.2417L54.7196 30.562ZM83.52 25.3179H82.52V25.8179L82.92 26.1179L83.52 25.3179ZM84.4258 23.1304L83.5314 23.5776L83.5423 23.5994L83.5542 23.6206L84.4258 23.1304ZM83.5029 22.9253L83.0068 22.057L82.381 22.4146L82.5223 23.1214L83.5029 22.9253ZM83.52 18.875H82.52V19.375L82.92 19.675L83.52 18.875ZM84.4258 16.8584L83.5314 17.3056L83.5485 17.34L83.5683 17.3729L84.4258 16.8584ZM83.5029 16.6533L83.0068 15.7851L82.381 16.1427L82.5223 16.8494L83.5029 16.6533ZM74.8896 11.4067L74.2833 10.6115L74.283 10.6118L74.8896 11.4067ZM79.709 9.7832L79.5492 8.79604L79.543 8.79707L79.709 9.7832ZM91.4155 11.4751L92.0184 10.6772L92.0172 10.6763L91.4155 11.4751ZM93.3638 18.0718L94.3021 18.4175L94.304 18.4122L93.3638 18.0718ZM92.3384 19.5415L91.8845 20.4325L92.4372 20.7142L92.9351 20.344L92.3384 19.5415ZM89.792 19.7979H88.792V20.7579L89.7512 20.797L89.792 19.7979ZM93.7056 21.6094L94.4856 20.9836L94.4788 20.9753L93.7056 21.6094ZM91.9624 30.667L92.4394 31.5459L92.4395 31.5458L91.9624 30.667ZM77.7266 31.9487L77.589 32.9393L77.598 32.9404L77.7266 31.9487ZM82.92 26.1179C83.0689 26.2295 83.2158 26.2787 83.2914 26.3006C83.3785 26.3259 83.4597 26.3396 83.5231 26.3479C83.6498 26.3644 83.7851 26.3691 83.9131 26.3691V24.3691C83.8716 24.3691 83.8396 24.3683 83.8159 24.3671C83.7914 24.3659 83.7811 24.3646 83.7818 24.3647C83.7825 24.3648 83.7884 24.3656 83.7985 24.3676C83.8083 24.3695 83.8259 24.3732 83.849 24.38C83.8715 24.3865 83.9066 24.3979 83.9491 24.4169C83.9904 24.4354 84.052 24.4668 84.12 24.5179L82.92 26.1179ZM83.9131 26.3691C84.3844 26.3691 84.8666 26.1919 85.2013 25.7567L83.6161 24.5373C83.6566 24.4846 83.717 24.4339 83.7903 24.4011C83.859 24.3703 83.9075 24.3691 83.9131 24.3691V26.3691ZM85.2013 25.7567C85.5309 25.3282 85.5796 24.7707 85.5796 24.3608H83.5796C83.5796 24.5035 83.5683 24.5873 83.5597 24.6269C83.5557 24.6452 83.5544 24.6443 83.5604 24.6299C83.5664 24.6155 83.5826 24.5808 83.6161 24.5373L85.2013 25.7567ZM85.5796 24.3608V24.0361H83.5796V24.3608H85.5796ZM85.5796 24.0361C85.5796 23.5843 85.5335 23.0599 85.2974 22.6401L83.5542 23.6206C83.5294 23.5766 83.5408 23.5756 83.5553 23.6609C83.5687 23.7404 83.5796 23.8622 83.5796 24.0361H85.5796ZM85.3202 22.6832C85.1964 22.4355 85.0036 22.2111 84.7339 22.057C84.4708 21.9067 84.1938 21.8569 83.9473 21.8569V23.8569C83.9286 23.8569 83.8453 23.8528 83.7417 23.7935C83.6315 23.7306 83.564 23.6429 83.5314 23.5776L85.3202 22.6832ZM83.9473 21.8569C83.8084 21.8569 83.6629 21.8639 83.5218 21.8857C83.3933 21.9054 83.1991 21.9472 83.0068 22.057L83.9991 23.7935C83.937 23.829 83.8871 23.846 83.8629 23.8532C83.8374 23.8609 83.8234 23.8628 83.8259 23.8624C83.8276 23.8621 83.8383 23.8606 83.8601 23.8593C83.8815 23.8579 83.9103 23.8569 83.9473 23.8569V21.8569ZM82.5223 23.1214C82.518 23.0998 82.5166 23.0867 82.5165 23.0859C82.5163 23.0843 82.5168 23.0883 82.5175 23.0994C82.5188 23.1222 82.52 23.1598 82.52 23.2158H84.52C84.52 23.0775 84.5162 22.8926 84.4835 22.7292L82.5223 23.1214ZM82.52 23.2158V25.3179H84.52V23.2158H82.52ZM82.92 19.675C83.0689 19.7867 83.2158 19.8358 83.2914 19.8578C83.3785 19.8831 83.4597 19.8968 83.5231 19.9051C83.6498 19.9216 83.7851 19.9263 83.9131 19.9263V17.9263C83.8716 17.9263 83.8396 17.9254 83.8159 17.9243C83.7914 17.9231 83.7811 17.9218 83.7818 17.9219C83.7825 17.9219 83.7884 17.9227 83.7985 17.9247C83.8083 17.9266 83.8259 17.9304 83.849 17.9371C83.8715 17.9436 83.9066 17.955 83.9491 17.974C83.9904 17.9925 84.052 18.024 84.12 18.075L82.92 19.675ZM83.9131 19.9263C84.4424 19.9263 84.9297 19.6912 85.2407 19.2246L83.5766 18.1152C83.6036 18.0748 83.6568 18.017 83.7399 17.974C83.8209 17.9321 83.8877 17.9263 83.9131 17.9263V19.9263ZM85.2407 19.2246C85.5248 18.7986 85.5796 18.2686 85.5796 17.8325H83.5796C83.5796 17.9812 83.5683 18.0774 83.5571 18.1324C83.5451 18.191 83.5399 18.1703 83.5766 18.1152L85.2407 19.2246ZM85.5796 17.8325V17.73H83.5796V17.8325H85.5796ZM85.5796 17.73C85.5796 17.2933 85.5352 16.7639 85.2833 16.3439L83.5683 17.3729C83.5341 17.3159 83.5427 17.301 83.5564 17.3783C83.5688 17.4488 83.5796 17.5625 83.5796 17.73H85.5796ZM85.3202 16.4112C85.1964 16.1635 85.0036 15.9392 84.7339 15.7851C84.4708 15.6347 84.1938 15.585 83.9473 15.585V17.585C83.9286 17.585 83.8453 17.5808 83.7417 17.5216C83.6315 17.4586 83.564 17.371 83.5314 17.3056L85.3202 16.4112ZM83.9473 15.585C83.8084 15.585 83.6629 15.592 83.5218 15.6137C83.3933 15.6334 83.1991 15.6752 83.0068 15.7851L83.9991 17.5216C83.937 17.557 83.8871 17.574 83.8629 17.5812C83.8374 17.5889 83.8234 17.5908 83.8259 17.5904C83.8276 17.5902 83.8383 17.5886 83.8601 17.5873C83.8815 17.5859 83.9103 17.585 83.9473 17.585V15.585ZM82.5223 16.8494C82.518 16.8278 82.5166 16.8147 82.5165 16.814C82.5163 16.8123 82.5168 16.8163 82.5175 16.8274C82.5188 16.8502 82.52 16.8878 82.52 16.9438H84.52C84.52 16.8056 84.5162 16.6206 84.4835 16.4572L82.5223 16.8494ZM82.52 16.9438V18.875H84.52V16.9438H82.52ZM75.2402 12.2954C75.2402 12.4464 75.1782 12.5102 75.21 12.4667C75.2412 12.4239 75.3231 12.3339 75.4963 12.2017L74.283 10.6118C74.0233 10.81 73.7804 11.0332 73.5952 11.2867C73.4105 11.5394 73.2402 11.8824 73.2402 12.2954H75.2402ZM75.496 12.2019C76.2022 11.6635 77.6004 11.1522 79.875 10.7693L79.543 8.79707C77.2147 9.18896 75.4001 9.76002 74.2833 10.6115L75.496 12.2019ZM79.8688 10.7703C81.0037 10.5866 82.2653 10.4927 83.6567 10.4927V8.49268C82.1771 8.49268 80.8069 8.59243 79.5492 8.79606L79.8688 10.7703ZM83.6567 10.4927C86.9707 10.4927 89.3053 11.1376 90.8139 12.2739L92.0172 10.6763C90.0166 9.1694 87.1787 8.49268 83.6567 8.49268V10.4927ZM90.8127 12.273C92.1063 13.2504 92.7227 14.4845 92.7227 16.0552H94.7227C94.7227 13.8433 93.8009 12.024 92.0184 10.6772L90.8127 12.273ZM92.7227 16.0552C92.7227 16.6194 92.6244 17.1766 92.4235 17.7313L94.304 18.4122C94.5817 17.6454 94.7227 16.8581 94.7227 16.0552H92.7227ZM92.4254 17.7261C92.2365 18.2388 91.9954 18.5504 91.7417 18.739L92.9351 20.344C93.5701 19.8718 94.0125 19.2036 94.3021 18.4175L92.4254 17.7261ZM92.7923 18.6505C92.0776 18.2864 91.3415 18.0801 90.5952 18.0801V20.0801C90.9654 20.0801 91.3915 20.1814 91.8845 20.4325L92.7923 18.6505ZM90.5952 18.0801C90.2255 18.0801 89.7773 18.1487 89.3971 18.4339L90.5971 20.0339C90.5415 20.0756 90.5 20.0866 90.4982 20.087C90.4972 20.0873 90.5041 20.0854 90.5209 20.0836C90.5376 20.0817 90.562 20.0801 90.5952 20.0801V18.0801ZM89.3971 18.4339C88.8876 18.816 88.792 19.4002 88.792 19.7979H90.792C90.792 19.7379 90.8004 19.7459 90.7831 19.7935C90.7624 19.8503 90.7091 19.9499 90.5971 20.0339L89.3971 18.4339ZM89.7512 20.797C91.1845 20.8555 92.2048 21.3563 92.9323 22.2435L94.4788 20.9753C93.3378 19.5838 91.7491 18.8769 89.8328 18.7987L89.7512 20.797ZM92.9255 22.2351C93.593 23.0672 93.9531 24.1236 93.9531 25.4717H95.9531C95.9531 23.7436 95.4815 22.2251 94.4856 20.9836L92.9255 22.2351ZM93.9531 25.4717C93.9531 26.5208 93.7345 27.3701 93.3388 28.0575C92.9446 28.7423 92.3422 29.3229 91.4853 29.7881L92.4395 31.5458C93.5764 30.9287 94.4694 30.1022 95.0721 29.0553C95.6733 28.0109 95.9531 26.8037 95.9531 25.4717H93.9531ZM91.4854 29.7881C89.8366 30.6829 87.2233 31.188 83.52 31.188V33.188C87.3363 33.188 90.3513 32.6791 92.4394 31.5459L91.4854 29.7881ZM83.52 31.188C80.8946 31.188 79.0178 31.1077 77.8551 30.957L77.598 32.9404C78.8963 33.1087 80.8817 33.188 83.52 33.188V31.188ZM77.8641 30.9582C76.7537 30.804 76.1335 30.4714 75.808 30.1052L74.3131 31.4339C75.0813 32.2981 76.2385 32.7517 77.589 32.9392L77.8641 30.9582ZM75.808 30.1052C75.4905 29.748 75.2402 29.0987 75.2402 27.9668H73.2402C73.2402 29.3414 73.5368 30.5606 74.3131 31.4339L75.808 30.1052ZM75.2402 27.9668V12.2954H73.2402V27.9668H75.2402ZM106.147 20.772L105.164 20.9568L105.221 21.2606L105.44 21.4791L106.147 20.772ZM107.07 20.7891L107.574 21.6528L108.172 21.3036L108.056 20.6205L107.07 20.7891ZM106.472 17.7129L107.424 17.4069L107.416 17.3823L107.407 17.3582L106.472 17.7129ZM105.498 17.3198L105.104 16.4007L104.367 16.7166L104.515 17.5047L105.498 17.3198ZM102.763 25.8989L103.365 25.1002L102.546 24.483L101.949 25.3177L102.763 25.8989ZM103.515 27.1807L103.168 28.1184L103.178 28.1222L103.189 28.1259L103.515 27.1807ZM105.788 27.5908L106.784 27.5009L106.707 26.6477L105.852 26.5929L105.788 27.5908ZM106.267 30.3936L107.156 30.8504L107.442 30.2939L107.067 29.7936L106.267 30.3936ZM104.472 31.6753L104.867 32.5939L104.876 32.59L104.472 31.6753ZM96.9697 31.2651L96.4503 32.1197L96.4565 32.1234L96.9697 31.2651ZM95.312 27.7617L96.2822 28.0043L96.2852 27.9922L96.2879 27.9801L95.312 27.7617ZM98.9521 11.4922L98.4146 10.649L98.0664 10.8709L97.9763 11.2738L98.9521 11.4922ZM111.188 10.6206L110.759 11.5237L110.76 11.5239L111.188 10.6206ZM114.077 13.8848L113.104 14.1181L113.105 14.1198L114.077 13.8848ZM117.973 30.0005L118.765 30.6108L119.058 30.2312L118.945 29.7655L117.973 30.0005ZM107.309 29.6074L108.295 29.4388L108.293 29.43L107.309 29.6074ZM106.933 27.5225L106.916 26.5226L105.74 26.5422L105.949 27.6999L106.933 27.5225ZM109.65 25.8989L110.26 25.1063L109.674 24.6554L109.071 25.0837L109.65 25.8989ZM105.44 21.4791C105.795 21.8339 106.247 21.9087 106.574 21.9087V19.9087C106.514 19.9087 106.682 19.8924 106.854 20.0649L105.44 21.4791ZM106.574 21.9087C106.906 21.9087 107.253 21.8398 107.574 21.6528L106.566 19.9253C106.576 19.9192 106.586 19.9148 106.594 19.9117C106.601 19.9086 106.607 19.9072 106.609 19.9067C106.613 19.9057 106.603 19.9087 106.574 19.9087V21.9087ZM108.056 20.6205C107.766 18.9271 107.554 17.8113 107.424 17.4069L105.52 18.0189C105.595 18.2525 105.781 19.1875 106.084 20.9577L108.056 20.6205ZM107.407 17.3582C107.309 17.0996 107.153 16.8156 106.897 16.59C106.62 16.3468 106.276 16.2173 105.908 16.2173V18.2173C105.858 18.2173 105.797 18.2087 105.731 18.1841C105.666 18.1594 105.614 18.1252 105.577 18.0924C105.508 18.032 105.509 17.9958 105.537 18.0675L107.407 17.3582ZM105.908 16.2173C105.606 16.2173 105.329 16.3041 105.104 16.4007L105.891 18.239C105.912 18.2303 105.928 18.2242 105.94 18.2199C105.952 18.2157 105.96 18.2137 105.962 18.2131C105.965 18.2124 105.962 18.2133 105.953 18.2145C105.944 18.2157 105.929 18.2173 105.908 18.2173V16.2173ZM104.515 17.5047L105.164 20.9568L107.13 20.5871L106.48 17.1349L104.515 17.5047ZM101.949 25.3177C101.765 25.576 101.592 25.9254 101.592 26.3433H103.592C103.592 26.4157 103.577 26.4662 103.568 26.4886C103.56 26.5093 103.558 26.5066 103.577 26.4802L101.949 25.3177ZM101.592 26.3433C101.592 26.8598 101.846 27.2641 102.151 27.541C102.438 27.8016 102.802 27.9829 103.168 28.1184L103.862 26.2429C103.744 26.1991 103.656 26.1584 103.593 26.1237C103.529 26.0885 103.501 26.0653 103.495 26.0599C103.49 26.0551 103.515 26.0769 103.543 26.1309C103.572 26.1896 103.592 26.2641 103.592 26.3433H101.592ZM103.189 28.1259C103.923 28.3797 104.774 28.5279 105.724 28.5888L105.852 26.5929C105.024 26.5398 104.36 26.4146 103.842 26.2355L103.189 28.1259ZM104.792 27.6807C104.867 28.5112 104.947 29.185 105.033 29.6903C105.076 29.9418 105.124 30.1702 105.179 30.3637C105.224 30.5246 105.306 30.7795 105.467 30.9936L107.067 29.7936C107.142 29.8937 107.139 29.9463 107.102 29.8167C107.075 29.7197 107.041 29.5693 107.005 29.3537C106.931 28.9247 106.857 28.311 106.784 27.5009L104.792 27.6807ZM105.377 29.9368C105.377 29.9367 105.377 29.9372 105.376 29.9381C105.376 29.9391 105.375 29.9404 105.374 29.9423C105.371 29.946 105.368 29.9514 105.363 29.9584C105.352 29.9727 105.336 29.9928 105.311 30.0184C105.261 30.0703 105.185 30.1371 105.074 30.2164C104.85 30.377 104.521 30.5604 104.068 30.7606L104.876 32.59C105.403 32.3573 105.864 32.1106 106.237 31.8439C106.601 31.5838 106.946 31.26 107.156 30.8504L105.377 29.9368ZM104.077 30.7567C103.24 31.1169 102.272 31.3076 101.157 31.3076V33.3076C102.502 33.3076 103.745 33.0768 104.867 32.5939L104.077 30.7567ZM101.157 31.3076C99.6714 31.3076 98.4611 30.9919 97.483 30.4069L96.4565 32.1234C97.8025 32.9284 99.3836 33.3076 101.157 33.3076V31.3076ZM97.4891 30.4106C96.5457 29.8371 96.2266 29.2196 96.2266 28.5479H94.2266C94.2266 30.0864 95.0696 31.2804 96.4503 32.1197L97.4891 30.4106ZM96.2266 28.5479C96.2266 28.3132 96.2494 28.1353 96.2822 28.0043L94.3419 27.5192C94.2607 27.8438 94.2266 28.1901 94.2266 28.5479H96.2266ZM96.2879 27.9801L99.928 11.7105L97.9763 11.2738L94.3361 27.5434L96.2879 27.9801ZM99.4897 12.3354C100.297 11.8207 101.285 11.4019 102.469 11.0925L101.964 9.15748C100.618 9.5089 99.4301 10.0016 98.4146 10.649L99.4897 12.3354ZM102.469 11.0925C103.647 10.7847 104.878 10.6294 106.164 10.6294V8.62939C104.716 8.62939 103.314 8.80454 101.964 9.15748L102.469 11.0925ZM106.164 10.6294C108.014 10.6294 109.535 10.9417 110.759 11.5237L111.618 9.71747C110.062 8.97793 108.233 8.62939 106.164 8.62939V10.6294ZM110.76 11.5239C112.13 12.1746 112.847 13.0468 113.104 14.1181L115.049 13.6514C114.623 11.8745 113.414 10.5705 111.617 9.71727L110.76 11.5239ZM113.105 14.1198L117.001 30.2355L118.945 29.7655L115.049 13.6498L113.105 14.1198ZM117.181 29.3902C116.251 30.5979 114.672 31.3076 112.18 31.3076V33.3076C115.042 33.3076 117.326 32.4793 118.765 30.6108L117.181 29.3902ZM112.18 31.3076C110.997 31.3076 110.065 31.0948 109.342 30.7193L108.421 32.4945C109.497 33.0533 110.764 33.3076 112.18 33.3076V31.3076ZM109.342 30.7193C108.671 30.3712 108.381 29.9457 108.295 29.4388L106.323 29.776C106.533 31.0009 107.291 31.9084 108.421 32.4945L109.342 30.7193ZM108.293 29.43L107.917 27.345L105.949 27.6999L106.325 29.7849L108.293 29.43ZM106.95 28.5223C107.753 28.5089 108.532 28.3544 109.281 28.0601L108.55 26.1986C108.023 26.4057 107.48 26.5132 106.916 26.5226L106.95 28.5223ZM109.281 28.0601C109.642 27.9183 109.992 27.7445 110.268 27.5176C110.539 27.2952 110.873 26.9059 110.873 26.3433H108.873C108.873 26.2074 108.914 26.1002 108.954 26.0344C108.989 25.9757 109.016 25.9576 108.999 25.9721C108.982 25.9856 108.941 26.0155 108.862 26.0578C108.784 26.0993 108.682 26.1468 108.55 26.1986L109.281 28.0601ZM110.873 26.3433C110.873 25.8415 110.647 25.404 110.26 25.1063L109.041 26.6915C109.01 26.6683 108.961 26.6202 108.923 26.5427C108.883 26.4643 108.873 26.3915 108.873 26.3433H110.873ZM109.071 25.0837C108.758 25.3064 108.347 25.495 107.814 25.6305L108.308 27.5687C109.029 27.3852 109.677 27.1067 110.23 26.7141L109.071 25.0837ZM107.814 25.6305C107.252 25.7736 106.755 25.8389 106.318 25.8389V27.8389C106.952 27.8389 107.617 27.7446 108.308 27.5687L107.814 25.6305ZM106.318 25.8389C104.898 25.8389 103.958 25.5471 103.365 25.1002L102.161 26.6976C103.232 27.5041 104.662 27.8389 106.318 27.8389V25.8389ZM119.921 10.2446L120.3 11.17L120.306 11.1677L119.921 10.2446ZM125.339 9.91992L125.064 10.8814L125.074 10.8843L125.084 10.887L125.339 9.91992ZM126.826 10.5864L127.611 9.96727L127.54 9.87721L127.45 9.80556L126.826 10.5864ZM130.722 16.7046L129.865 17.2197L130.156 17.7046H130.722V16.7046ZM130.791 15.252L129.926 15.7541L129.931 15.7634L130.791 15.252ZM128.945 12.0732H127.945V12.3425L128.08 12.5754L128.945 12.0732ZM128.945 11.1333L128.309 10.3614L127.945 10.6614V11.1333H128.945ZM137.148 10.4155L137.665 9.55965L137.656 9.55416L137.148 10.4155ZM137.302 31.6753L136.872 30.7722L136.863 30.7765L136.855 30.7809L137.302 31.6753ZM131.936 32.0342L131.712 33.0088L131.715 33.0096L131.936 32.0342ZM130.295 31.4189L129.507 32.0341L129.614 32.1723L129.763 32.2656L130.295 31.4189ZM127.885 27.9326L127.028 28.4471L127.031 28.4532L127.035 28.4592L127.885 27.9326ZM126.142 25.0273L127 24.5128L126.66 23.9465L126.005 24.0367L126.142 25.0273ZM126.142 26.668L125.286 27.1851L125.292 27.1942L126.142 26.668ZM128.278 30.1201H129.278V29.8357L129.129 29.5939L128.278 30.1201ZM128.278 31.0259L128.821 31.8656L129.278 31.5701V31.0259H128.278ZM119.904 31.4019L119.361 32.2417L119.366 32.2447L119.904 31.4019ZM119.503 28.8384V11.7144H117.503V28.8384H119.503ZM119.503 11.7144C119.503 11.7036 119.504 11.6982 119.508 11.6896C119.513 11.6785 119.529 11.6468 119.577 11.597C119.681 11.4889 119.898 11.335 120.3 11.17L119.542 9.31926C118.517 9.73941 117.503 10.4711 117.503 11.7144H119.503ZM120.306 11.1677C121.116 10.8304 122.102 10.6465 123.288 10.6465V8.64648C121.9 8.64648 120.641 8.86134 119.537 9.32155L120.306 11.1677ZM123.288 10.6465C123.933 10.6465 124.524 10.7271 125.064 10.8814L125.614 8.9584C124.878 8.7482 124.101 8.64648 123.288 8.64648V10.6465ZM125.084 10.887C125.664 11.0395 126.011 11.2151 126.201 11.3673L127.45 9.80556C126.957 9.41091 126.313 9.14219 125.593 8.95285L125.084 10.887ZM126.04 11.2056C126.487 11.7714 126.893 12.3465 127.261 12.9308L128.954 11.8651C128.547 11.219 128.099 10.5864 127.611 9.96727L126.04 11.2056ZM127.261 12.9308C127.642 13.5354 128.508 14.9612 129.865 17.2197L131.579 16.1895C130.225 13.9363 129.348 12.491 128.954 11.8651L127.261 12.9308ZM130.722 17.7046C131.078 17.7046 131.407 17.5852 131.678 17.3743L130.45 15.7956C130.478 15.774 130.518 15.7493 130.571 15.7308C130.625 15.7122 130.677 15.7046 130.722 15.7046V17.7046ZM131.678 17.3743C132.08 17.0619 132.218 16.6162 132.218 16.2261H130.218C130.218 16.2001 130.222 16.1309 130.26 16.0415C130.301 15.9461 130.367 15.8598 130.45 15.7956L131.678 17.3743ZM132.218 16.2261C132.218 15.9202 132.107 15.6346 132.027 15.4527C131.932 15.2377 131.803 14.9976 131.65 14.7405L129.931 15.7634C130.063 15.9848 130.147 16.1463 130.195 16.256C130.219 16.3104 130.228 16.3386 130.23 16.3452C130.234 16.3581 130.218 16.3113 130.218 16.2261H132.218ZM131.655 14.7498L129.81 11.5711L128.08 12.5754L129.926 15.7541L131.655 14.7498ZM129.945 12.0732V11.1333H127.945V12.0732H129.945ZM129.581 11.9052C130.048 11.5201 130.636 11.2058 131.364 10.9762L130.763 9.06868C129.829 9.36324 129.004 9.78944 128.309 10.3614L129.581 11.9052ZM131.364 10.9762C132.097 10.7454 132.856 10.6294 133.645 10.6294V8.62939C132.656 8.62939 131.694 8.77542 130.763 9.06868L131.364 10.9762ZM133.645 10.6294C134.981 10.6294 135.955 10.8729 136.64 11.2769L137.656 9.55416C136.564 8.90993 135.202 8.62939 133.645 8.62939V10.6294ZM136.631 11.2714C137.333 11.6961 137.703 12.3299 137.703 13.355H139.703C139.703 11.7141 139.036 10.3882 137.665 9.5597L136.631 11.2714ZM137.703 13.355V29.5391H139.703V13.355H137.703ZM137.703 29.5391C137.703 29.8642 137.628 30.0899 137.517 30.2595C137.403 30.4324 137.21 30.6118 136.872 30.7722L137.731 32.5784C138.328 32.2944 138.835 31.8957 139.189 31.3565C139.545 30.814 139.703 30.1938 139.703 29.5391H137.703ZM136.855 30.7809C136.248 31.0844 135.354 31.2734 134.106 31.2734V33.2734C135.524 33.2734 136.761 33.0637 137.749 32.5697L136.855 30.7809ZM134.106 31.2734C133.438 31.2734 132.788 31.2016 132.156 31.0587L131.715 33.0096C132.496 33.1858 133.293 33.2734 134.106 33.2734V31.2734ZM132.159 31.0595C131.523 30.9136 131.095 30.7409 130.827 30.5723L129.763 32.2656C130.292 32.5983 130.958 32.8358 131.712 33.0088L132.159 31.0595ZM131.083 30.8038C130.3 29.7993 129.517 28.6673 128.735 27.406L127.035 28.4592C127.849 29.7728 128.672 30.9651 129.507 32.0341L131.083 30.8038ZM128.743 27.4181L127 24.5128L125.285 25.5418L127.028 28.4471L128.743 27.4181ZM126.005 24.0367C125.698 24.0791 125.33 24.2013 125.04 24.5108C124.741 24.8309 124.646 25.2214 124.646 25.5571H126.646C126.646 25.5853 126.635 25.7337 126.501 25.8771C126.376 26.0101 126.255 26.0212 126.279 26.018L126.005 24.0367ZM124.646 25.5571C124.646 25.8786 124.766 26.1841 124.857 26.3875C124.963 26.6254 125.11 26.8939 125.286 27.1851L126.998 26.1509C126.844 25.8951 126.743 25.7051 126.684 25.5727C126.654 25.5069 126.641 25.4691 126.637 25.4544C126.631 25.4332 126.646 25.4748 126.646 25.5571H124.646ZM125.292 27.1942L127.428 30.6463L129.129 29.5939L126.992 26.1418L125.292 27.1942ZM127.278 30.1201V31.0259H129.278V30.1201H127.278ZM127.735 30.1861C126.585 30.9299 125.283 31.3076 123.801 31.3076V33.3076C125.645 33.3076 127.328 32.8308 128.821 31.8656L127.735 30.1861ZM123.801 31.3076C122.255 31.3076 121.168 31.0226 120.442 30.559L119.366 32.2447C120.531 32.9888 122.043 33.3076 123.801 33.3076V31.3076ZM120.447 30.562C119.796 30.1409 119.503 29.6014 119.503 28.8384H117.503C117.503 30.2856 118.144 31.4551 119.361 32.2417L120.447 30.562Z" fill="black" mask="url(#path-1-outside-1_535_9)"/>
</g>
<defs>
<linearGradient id="paint0_linear_535_9" x1="8" y1="12.25" x2="200.07" y2="14.7884" gradientUnits="userSpaceOnUse">
<stop stop-color="#FFFFA7"/>
<stop offset="0.333333" stop-color="#B9DDFF" stop-opacity="0.802083"/>
<stop offset="0.536458" stop-color="#FFC8F9" stop-opacity="0.588542"/>
<stop offset="0.729167" stop-color="#35FFB9" stop-opacity="0.105805"/>
<stop offset="1" stop-color="#84FFCE" stop-opacity="0"/>
</linearGradient>
<clipPath id="clip0_535_9">
<rect width="146" height="40" fill="white"/>
</clipPath>
</defs>
</svg>
